<svg width="450pt" height="600pt" viewBox="0 0 450 600" xmlns="http://www.w3.org/2000/svg"><path d="M198.46 31.63c17.65-.3 35.38-.38 53.03.04 11.26 3.54 12.61 17.51 18.81 26.09 11.96-7.01 26.96 5.12 23.54 18.28-2.17 9.77 2.46 24.03-4.42 30.82 5.24 17.34-17.67 11.03-27.4 10.29.04-1.75.05-3.5.04-5.25 1.89-2.24 4.42-.66 4.79 1.86 6.09-.02 12.19 0 18.28-.01l-.01-7.23c-40.19-.04-80.37-.04-120.56 0 .05 2.41.03 4.83.06 7.24l18.3-.01c2.16-8.36 8.82 4.05 2.09 4.52-10.11-1.13-29.92 5.49-24.75-11.65-.63-.11-1.89-.33-2.52-.45-1.44-11.62-1.4-23.45-2.08-35.15.18-11.56 13.82-19.02 23.78-13.25 6.18-8.63 7.54-22.84 19.02-26.14m-14.62 27.36c2.63.67 9.37 1.36 6.38 5.32-8.13 1.36-17.12-7.61-25.05-2.07-10.31 10.17-1.95 26.85-3.59 39.71 42.19.15 84.39.12 126.58.01-.59-11.91 3.5-24.53-.16-35.98-6.38-10.94-18.72-1.98-27.83-1.21-4.66-3.53 2.75-5.44 5.69-5.77-5.16-7.31-6.54-18.38-14.79-22.78-17.31-.66-34.8-.4-52.13-.13-8.57 4.16-9.83 15.57-15.1 22.9zm-179.35-11c-.55-6.4 5.09-12.4 11.5-12.3 31.65.05 63.31-.11 94.95.08 14.91 2.08 13.61 20.95 23 29.29 15.98 8.16 17.77 42.95-5.98 38.09-2 15.82-26.96 15.84-28.96.01h-46.87c-2.02 15.81-26.97 15.81-28.97-.02-6.94.77-16.54.11-18.38-8.24-.65-15.59-.07-31.28-.29-46.91m4.62 0c.14 15.34-.23 30.71.18 46.03 1.84 6.04 9.11 4.35 13.87 4.53 1.97-15.94 27.01-15.87 29 .01l46.84-.03c1.97-15.89 26.99-15.87 28.97.01 6.41 1.5 15.1-1.37 12.93-9.53 2.36-9.8-5.42-16.28-11.75-22.16-7.85-7.39-6.71-22.83-18.13-26.4-31.33-.39-62.7-.04-94.04-.17-4.26-.51-8.39 3.4-7.87 7.71m25.22 43.46c-12.21 3.72-5.29 23.61 6.62 18.72 12.27-3.66 5.31-23.62-6.62-18.72m75.94-.02c-12.44 3.59-5.32 23.82 6.67 18.7 11.99-3.81 5.15-23.43-6.67-18.7zm211.72-28.51c7.47-5.97 8.77-19.48 19.09-21.93 14.22.09 28.55-.63 42.72.37 8.87 4.01 15.27 12.08 23.1 17.8 9.43 10.96 27.06 2.86 37.59 11.27 3.55 11.51-.6 32.52-17.46 27.34-1.91 14.35-24.37 14.36-26.27.01-14.09.01-28.18-.02-42.27.01-1.81 14.34-24.39 14.32-26.2-.01-8.38-.88-20.17 3.18-25.14-6.03-1.91-5.99-2.75-12.48-2.99-18.76 1.84-8.02 11.72-7.36 17.83-10.07m18.34-17.52c-6.4 5.32-9.5 13.99-14.55 20.66-5.44 2.27-11.96 2.53-16.73 5.97-2.02 5.19 1 11.21 1.36 16.67 3.71 8.48 14.76 3.74 21.87 4.98 1.86-14.32 24.4-14.36 26.2 0 14.09-.01 28.18-.04 42.27.01 1.84-14.33 24.4-14.38 26.23-.03 13.69 4.73 15.98-12.44 13.67-21.27-9.39-2.82-19.79-2.49-29.51-4.39-9.54-7.12-17.86-15.98-27.82-22.45-14.24-.82-28.73-.52-42.99-.15m1.85 41.95c-11.22 3.69-3.92 21.75 6.71 16.65 10.68-3.86 3.76-21.32-6.71-16.65m68.18.13c-10.14 3.69-4.42 20.28 5.87 16.92 12.02-2.75 5.42-22.32-5.87-16.92zm-247.19-40.24c3.25-.64 14.05-1.7 9.74 4.02-3.24.15-13.89 1.59-9.74-4.02zm124.98 1.73c-1.47 4.35-16.01 3.66-11.3-1.87 3.73.15 8.76-1.75 11.3 1.87zm-90.87 11.46c18.45-.05 36.91-.11 55.35.03 2.86.25 2.08 4.75-.59 4.34-18.38.02-36.78.15-55.16-.06-2.38-.61-2.02-4.2.4-4.31zm143.52 7.61c13.39-5.59 31.85-.85 47.2-2.44 4.11-1.8 5.62 4.93 1.04 4.14-15.89-1.14-33.28 2.24-48.24-1.7zm-305.73-.26c22.29-.59 44.68-.21 67.01-.19 3.13.33 1.89 5.09-1.01 4.51-21.39.03-42.78.04-64.16 0-2.37.21-3.7-2.74-1.84-4.32zm129.21 4.45c7.87-6.43 26.74.72 22.75 12.83-6.64 1.24-13.83.1-20.67.54-3.86-8.1 12.14-2.99 16.95-4.43-2.24-10.1-15.31-3.05-19.03-8.94zm98.68 12.96c-5.3-11.89 16.15-20.27 22.42-12.3-4.87 4.42-16.59-1.32-19 8.29 6.14 1.02 13.72-2.11 18.88 1.77-4.91 5.56-15.39 1.62-22.3 2.24zm-51.57-12.68c8.37-.88 17.15-.18 25.68-.36 2.56-.23 3.01 3.75.53 4.27-8.4.14-16.81.1-25.21.02-2.03.04-2.74-2.94-1-3.93zm-11.65 15.08c16.75-.17 33.61-.33 50.34.08 5.72 5.12-4.11 16.19-3.22 4.16-14.71.02-29.41.01-44.11 0 .03 1.5.07 3 .12 4.5-5.15 5.04-6.17-6.67-3.13-8.74zm-199.74 136.85c-.85-46.25 47.25-84.42 92.06-72.27 36.96 7.73 63.4 46.63 56.92 83.86-4.57 36.1-38.46 64.62-74.69 63.98 41.12-1.01 77.39 35.93 75.71 77.02-.33-25.32 12.27-50.46 33.62-64.32 26.66-18.29 65.16-16.16 89.54 5.11 17.55 14.32 26.82 36.83 27 59.25-2.22-42.53 37.32-80.79 79.79-76.65 37.21 1.55 69 34.63 69.94 71.73l.11-.99v3.6c.72 39.62-35.38 78.23-76 73.57-40.77 3.58-75.41-35.92-74.15-75.4 2.03 40.79-34.63 79.03-75.81 76.38-40.59 1.55-75.63-36.3-74.04-76.34 1.55 39.76-32.78 77.04-72.95 76.51-39.79 2.67-76.09-32.13-76.94-71.64l-.11 1v-3.59c-.74-40.4 35.19-76.11 75.57-75.24-20.65-.39-41.61-8.51-55.32-24.26-2.24-21.46 10.7-43.35 30.05-52.74-8.03-11.63-6.37-29.08 4.46-38.37 3.29-1.94 6.53 3.26 3.19 5.36-11.26 10.91-7.18 31.81 7.27 37.77 13.92 7.09 32.28-3.65 33.29-19.14 1.69-13.43-10.06-26.16-23.52-26.01-5.35-.14-2.78-8.07 1.94-6.04 22.14.5 35.92 28.63 22.77 46.45 11.49 5.7 20.9 15.56 25.88 27.4 1.44 3.15-4.04 5.88-5.43 2.56-5-10.86-13.63-19.99-24.47-25.13-11.11 10.85-30.23 10.86-41.34.01-17.24 7.85-28.71 26.23-28.37 45.15 23.14 24.68 64.9 27.5 91.16 6.17 27.56-20.52 34.89-62.56 15.74-91.12-17.56-28.79-57.59-40.2-87.67-24.9-30.87 14.08-46.94 52.88-34.91 84.66 2.02 3.2-3.45 6.7-5.28 3.18-3.09-7.11-4.07-14.94-4.89-22.59l-.12 1.39v-5.37m67.26 80.97c-45.65 3.34-76.56 57.42-56.07 98.45 13.82 32.29 53.84 49.57 86.81 37.28 32.03-10.47 52.79-46.19 45.79-79.21-5.84-34.96-41.36-61.27-76.53-56.52m149.99 0c-45.64 3.35-76.54 57.41-56.06 98.44 13.81 32.3 53.84 49.58 86.8 37.29 32.03-10.47 52.8-46.19 45.8-79.22-5.85-34.95-41.36-61.27-76.54-56.51m150.01 0c-45.69 3.35-76.59 57.5-56.03 98.53 13.85 32.24 53.83 49.48 86.77 37.2 32.03-10.47 52.79-46.19 45.79-79.22-5.85-34.95-41.36-61.26-76.53-56.51zm-136.01-155.05c34 3.23 63.55 32.86 67.87 66.67.25 5.26-8.54 5.13-8.46-.07-4.79-29.25-29.51-53.66-58.73-58.36-4.31-.4-4.8-7.08-.68-8.24zm136.03.06c43.73-5.64 85.45 34.77 81.3 78.64 1.35 15.93-16.92 29.85-31.49 21.76-5.19-1.85-1.95-10.26 3.06-8.14 6.98 4.21 16.49-.05 18.78-7.65 7.32-35.44-21.05-72.43-56.83-75.77-32.61-4.6-65.83 19.3-71.88 51.65-6.99 29.84 10.58 62.49 38.8 73.95 23.65 10.31 53.03 4.64 71.25-13.58 2.93-4.29 10.01-.09 7.6 4.51-23.64 26.13-66.86 30.45-95.43 9.87-25.06-16.74-37.78-49.47-30.29-78.72 6.83-30.17 34.3-54.01 65.13-56.52zm-192.96 9.03c15.39-3.23 23.07 14.58 33.48 22.67 10.44 11.42-2.85 23.1-11.05 30.64 8.95 16.66 23 31.15 39.96 39.67 7.34-7.99 18.63-21.03 29.88-11.11 8.13 10.77 27.03 18.8 22.67 34.66-8.71 13.41-23.1 28.48-40.95 22.57-45.78-12.4-84.2-50.9-97.09-96.47-6.14-18.31 8.65-34.18 23.1-42.63m3.98 7.94c-6.88 2.57-11.1 9.71-16.49 14.55-6.65 9.98-1.29 22.65 2.66 32.68 14.29 31.59 40.61 57.79 72.54 71.44 9.4 3.52 21.5 8.28 30.54 1.59 4.35-6.06 13.68-10 14-17.99-5.83-8.47-14.3-15.17-21.53-22.53-11.18-3.47-14.58 17.57-25.95 13.78-19.23-9.69-35.53-25.77-45.28-44.96-5.73-12.21 18.75-15.89 12.95-27.68-7.87-6.68-13.74-17.29-23.44-20.88zm51.97 9.97c21.1 1.53 39.2 19.96 42.05 40.74.11 4.84-7.69 5.79-8.5.94-2.63-16.53-16.35-30.54-32.89-33.3-4.57-.25-5.04-7.33-.66-8.38zm136.1 9.15c23.52-5.94 48.83 15.24 46.54 39.46-1.6 4.61-9.15 2.98-8.51-1.91.46-19.48-21.1-35.02-39.41-28.13-22.47 6.28-27.9 39.51-8.46 52.53 13.38 10.63 34.98 6.28 43.48-8.46 1.94-5.1 10.11-1.96 8.27 3.01-8.02 15.54-27.6 23.7-44.33 18.68-16.48-4.34-28.75-20.63-28.28-37.68-.15-17.67 13.38-34.13 30.7-37.5zm-336.12 140.79c23.75-23.47 66.64-23.8 89.66.73-.85 1.03-1.79 1.96-2.83 2.81-20.46-19.1-53.96-22.29-76.79-5.55-27.92 18.38-34.53 60.74-13.35 86.67 2.75 1.6 1.17 6.36-1.94 4.9-22.49-24.9-19.78-67.29 5.25-89.56zm150.01 0c23.74-23.48 66.63-23.8 89.65.73-.85 1.03-1.79 1.96-2.83 2.81-20.46-19.1-53.96-22.29-76.79-5.55-27.93 18.38-34.53 60.75-13.35 86.67 2.75 1.6 1.17 6.35-1.94 4.9-22.5-24.9-19.78-67.29 5.26-89.56zm150 0c23.74-23.47 66.63-23.8 89.65.73-.85 1.03-1.79 1.96-2.83 2.81-20.46-19.1-53.95-22.29-76.79-5.56-27.93 18.39-34.53 60.76-13.35 86.69 2.75 1.59 1.16 6.35-1.94 4.89-22.5-24.9-19.78-67.29 5.26-89.56zm-207.19 10.74c-2.76-1.61-1.18-6.35 1.93-4.9 22.32 24.73 19.85 66.72-4.76 89.1-23.67 23.89-66.96 24.44-90.15-.27.85-1.04 1.79-1.97 2.83-2.81 20.28 18.9 53.35 22.28 76.18 6.01 28.42-18.17 35.31-60.99 13.97-87.13zm149.99-.01c-2.76-1.6-1.16-6.34 1.93-4.89 22.34 24.72 19.86 66.72-4.75 89.1-23.67 23.9-66.96 24.44-90.15-.27.85-1.04 1.79-1.97 2.83-2.81 20.28 18.9 53.35 22.27 76.18 6.01 28.43-18.17 35.31-61 13.96-87.14zm150 .01c-2.76-1.61-1.16-6.36 1.95-4.9 22.31 24.74 19.83 66.73-4.77 89.1-23.68 23.9-66.96 24.44-90.15-.27.84-1.04 1.79-1.97 2.83-2.81 20.28 18.9 53.35 22.28 76.19 6.01 28.42-18.17 35.3-60.99 13.95-87.13zm-230.76 26.98c-.95-28.83 40.61-41.82 58.51-20.89 18.8 18.95-2.3 62.79-29.52 48.11-2.4 8.62-5.07 22.03-14.23 24.57-8.68-16.37 7.09-34.68 2.68-51.81-.82-8.45 9.12-17.98 16.81-11.52 7.05 7.8-1.71 17.64-1.25 26.26 2.88 5.93 10.92 2.11 12.91-2.65 5.11-9.21 6.67-25.42-5.55-29.62-13.8-5.89-31.22 7.94-26.03 22.76 3.02 3.4 3.31 7.66 1.56 11.77-8.84 6.5-16.81-8.96-15.89-16.98m7.39-11.28c-4.21 8.04-4.05 20.2 4.32 25.52.26-1 .53-2 .8-2.98-13.85-18.73 12.09-43.36 31.36-32.53 14.84 7.15 12.53 28.9 3.21 39.65-4.39 5.15-13.78 5.91-17.63-.24-5.24-8.51 6.52-18.18 1.31-26.33-8.34-2.92-10.3 9.92-7.16 15.41-1.81 12.34-7.16 24.24-6.62 36.91 6.07-6.41 5.88-15.98 9.19-23.68 4.35-1.6 6.2 5.88 11.21 5.04 19.36 1.29 28.66-24.71 20.2-39.56-10.67-18.05-41.12-15.6-50.19 2.79zm-136.65 6.04c-4.5-18.12 14.05-27.18 29.31-23.31l1.65 1.42c-.12 4.76-.12 9.53-.01 14.29l-1.56 1.44c-3.23 0-6.45-.03-9.67.02-.06 2.06-.07 4.12-.07 6.19 16.24-7.41 14.77 23.58 0 17.57-.14 11.64.38 23.42-.25 34.98-5.34 2.12-13.37 1.64-18.95.25-1.14-11.44-.06-23.52-.5-35.2-10.8 4.01-10.84-21.61.05-17.65m5.77-11.69c-3.15 5.89 3.13 19.4-8.24 16.55.03 2.67.02 5.34-.01 8.01 2.32.38 5.96-1.11 7.1 1.66.13 11.5.02 23 .04 34.5 3.44-.01 6.88 0 10.33-.03.07-11.54-.09-23.09.04-34.62 2.34-3.01 7.02-.85 10.35-1.52.2-2.68.46-5.36.82-8.01-3.71-.51-8.16 1.28-11.3-1.31-1.62-7.99 1.16-17.59 11.35-14.45-.03-2.54-.01-5.08-.02-7.61-7.14-.15-17.29-1.51-20.46 6.83zm276.31-9.8c17.77-1.82 35.95-.26 53.88-.8 6.72-.88 13.51 4.62 13.41 11.52.03 17.32.05 34.65-.01 51.98-.06 5.99-5.39 11.31-11.39 11.29-17.34.01-34.67.01-52.01 0-6 .02-11.34-5.3-11.4-11.29-.07-16.99 0-33.99-.04-50.99-.32-4.99 2.82-10.01 7.56-11.71m6.58 3.73c-1.21 4.39 3.36 19.6-4.82 15.25.02-4.94.04-9.88.04-14.81-7.09 3.42-3.79 12.17-4.59 18.32 5.63.06 11.25-.01 16.88.04 8.03-9.2 23.55-9.2 31.58 0 5.63-.04 11.25.02 16.88-.04-.86-6.07 2.72-15.71-5.09-18.27-14.59-.62-29.26-.08-43.89-.27-.87 5.21 1.85 11.95-1.41 16.21-8.17-.3.9-15.06-5.58-16.43m18.44 17.32c-20.43 5.35-9.9 38.79 10.05 31 19.9-5.61 9.63-38.24-10.05-31m-27.75 41.65c.06 3.82 3.82 6.92 7.58 6.56 16.68-.01 33.37-.01 50.05 0 3.75.36 7.53-2.73 7.59-6.55.05-11.8-.06-23.59.05-35.38l-13.79-.02c6.47 11.87-1.79 28.1-15.11 30.02-16.21 3.77-30.79-15.46-22.63-30.02l-13.79.02c.11 11.79 0 23.58.05 35.37zm51-56.45c10.46-4.02 15.54 5.78 10.7 13.8-10.71 5.03-17.57-6.35-10.7-13.8m2.7 4.75c-.03 1.49-.04 2.99-.03 4.5 1.53.02 3.06.03 4.59.03l.06-4.51c-1.55-.03-3.09-.04-4.62-.02zm-21.88 14c6.85-.96 13.9 6.14 12.15 12.89-2.7 3.22-5.09-1.03-4.87-3.74-.4-5.43-12.97-3.49-7.28-9.15zm-338.5 98.45c30.08-19.61 73.58-12.45 96.2 15.28 21.77 25 23.29 64.82 3.59 91.45-13.24 19.28-36.04 30.02-59 31.53h2.07c-31.64 1.07-62.83-18.98-73.39-49.07-12.51-32.09.97-71.52 30.53-89.19m35.93 5.37c-.25 6.43 0 12.88-.08 19.31-3.04.44-9.81-1.76-9.48 3.19 4.93 6.48 8.32 15.17 14.63 19.98 6.29-5.33 9.85-13.98 14.91-20.7-1.79-4.02-6.63-2.07-10.02-2.47-.08-6.56.31-13.16-.16-19.7-1.32-4.81-8.86-4.47-9.8.39m-47.25 32.12c-6.31 6.17 4.28 9.56 9.2 10.2 5.6 19.05 10.57 38.29 16.07 57.38-12.55 7.92 8.84 20.57 9.89 5.91 10.71.05 21.43.03 32.14.01-.07 5.3 6.5 9.26 10.83 5.75 4.9-3.08 2.9-11.35-2.77-12.05-13.62-1.75-27.39-2.06-41.08-2.97-.87-1.25-1.05-2.82-1.54-4.22 14.6-.64 29.74 1.23 44.01-.94 5.67-10.13 6.46-23.08 11.04-33.72 6.88 2.37 11.42-8.18 3.78-9.91-23.76-.2-47.54-.05-71.3-.08.13-11.11-10.22-17.9-20.27-15.36zm23.38 25.85c3.36 0 6.72 0 10.08.01 1.81 7.87 3.54 15.76 5.33 23.64-13.95 3.73-10.85-15.16-15.41-23.65zm19.77-.05c4.97.08 9.94.12 14.91-.02-1.31 7.94-2.85 15.84-4.27 23.77-2.13-.02-4.26-.02-6.38-.01-1.43-7.91-2.94-15.81-4.26-23.74zm24.6.06c3.36-.01 6.72-.01 10.08 0-4.54 8.47-1.46 27.36-15.4 23.64 1.79-7.88 3.51-15.77 5.32-23.64z" fill="#f2cb29"/><path d="M71.64 467.11c.94-4.86 8.48-5.2 9.8-.39.47 6.54.08 13.14.16 19.7 3.39.4 8.23-1.55 10.02 2.47-5.06 6.72-8.62 15.37-14.91 20.7-6.31-4.81-9.7-13.5-14.63-19.98-.33-4.95 6.44-2.75 9.48-3.19.08-6.43-.17-12.88.08-19.31zm-47.25 32.12c10.05-2.54 20.4 4.25 20.27 15.36 23.76.03 47.54-.12 71.3.08 7.64 1.73 3.1 12.28-3.78 9.91-4.58 10.64-5.37 23.59-11.04 33.72-14.27 2.17-29.41.3-44.01.94.49 1.4.67 2.97 1.54 4.22 13.69.91 27.46 1.22 41.08 2.97 5.67.7 7.67 8.97 2.77 12.05-4.33 3.51-10.9-.45-10.83-5.75-10.71.02-21.43.04-32.14-.01-1.05 14.66-22.44 2.01-9.89-5.91-5.5-19.09-10.47-38.33-16.07-57.38-4.92-.64-15.51-4.03-9.2-10.2m23.38 25.85c4.56 8.49 1.46 27.38 15.41 23.65-1.79-7.88-3.52-15.77-5.33-23.64-3.36-.01-6.72-.01-10.08-.01m19.77-.05c1.32 7.93 2.83 15.83 4.26 23.74 2.12-.01 4.25-.01 6.38.01 1.42-7.93 2.96-15.83 4.27-23.77-4.97.14-9.94.1-14.91.02m24.6.06c-1.81 7.87-3.53 15.76-5.32 23.64 13.94 3.72 10.86-15.17 15.4-23.64-3.36-.01-6.72-.01-10.08 0z"/></svg>