<svg width="161pt" height="144pt" viewBox="0 0 161 144" xmlns="http://www.w3.org/2000/svg"><path fill="#1b1b1b" d="M27.33 16.27c15.22-12.06 35.5-17.76 54.76-14.77 15.41 2.12 29.94 9.59 40.92 20.56 10.24 10.44 17.28 24.02 19.65 38.46 3.01 17.63-.97 36.38-10.94 51.24-8.74 13.1-21.86 23.23-36.81 28.22-5.16 1.89-10.67 2.43-15.91 4.02h-14.22c-2.81-.87-5.66-1.54-8.55-2.06-22.98-4.87-42.8-22.04-51.21-43.92-6.1-15.56-6.39-33.29-.92-49.08 4.44-12.79 12.57-24.29 23.23-32.67m52.56 1.59c-3.97 2.71-8.48 6.8-7.73 12.11.57 3.21 4.06 4.57 6.85 5.34 8.48 2 17.31 2.33 25.98 1.68 4.7-.56 9.81-.76 13.81-3.61-7.5-8.66-17.27-15.44-28.22-18.91-3.83-.68-7.49 1.54-10.69 3.39m-57.98 20.15c-1.16 7.02.88 14.88 6.06 19.91 2.33 2.47 6.69 2.56 8.96-.03 3.02-3.27 4.79-7.44 6.49-11.5 2.8-7.23 5.04-14.76 5.89-22.49.15-2.63.49-5.48-.94-7.84-10.4 4.98-20.39 11.95-26.46 21.95m37.48 14.42c-5.65 2.16-5.3 11.88.65 13.32 4.12 1.3 8.28-2.63 7.81-6.77.52-4.42-4.25-8.35-8.46-6.55m25.04 2.08c-5.3 2.15-5.39 10.84-.14 13.1 4.18 2.26 9.28-2.21 8.64-6.64.48-4.39-4.34-8.32-8.5-6.46m25.29 9.51c.26 13.06 6.15 25.04 11.66 36.59.51 1.69 2.39 1.86 3.86 2.09 4.57-11.01 8.73-22.94 7.14-35.02-3.74-5.36-9.62-10.06-16.37-10.35-3.68-.34-6.45 3.23-6.29 6.69m-39.34-.56c-7.19 2.17-8.94 12.73-2.85 17.12 5.44 4.8 14.82.44 15.11-6.68 1.09-6.64-5.83-12.65-12.26-10.44m-13.04 13.97c-5.3 2.15-5.36 10.95-.04 13.12 4.17 2.07 9.12-2.2 8.56-6.58.46-4.45-4.27-8.34-8.52-6.54m-46.05.04c1.01 12.2 5.84 24.15 13.83 33.46 4.2 2.1 9.18 2.03 13.75 1.47 3.46-.69 7.66-2.36 8.41-6.26.38-3.09-1.79-5.62-3.61-7.84-4.9-5.49-10.82-9.98-16.94-14.02-4.77-2.99-9.77-5.97-15.44-6.81m71.94 1.75c-4.96 1.71-5.92 9.19-1.83 12.3 3 2.68 8.17 1.12 9.48-2.62 2.49-4.75-2.23-11.83-7.65-9.68m7.19 28.33c-8.87 3.35-17.04 8.42-24.38 14.38-2.93 2.7-6.53 5.38-7.25 9.56 12.08 2.54 24.92 1.55 36.35-3.16 3.04-.91 4.13-4.2 5.35-6.78 1.45-3.89 2.33-8.58.44-12.46-2.2-3.7-7.13-2.78-10.51-1.54z"/></svg>