<svg width="535pt" height="140pt" viewBox="0 0 535 140" xmlns="http://www.w3.org/2000/svg"><g fill="#f2cb29"><path d="M0 28.7c178.36-8.49 356.62-18.21 535-26.48v1.24c-178.26 9.38-356.7 17.99-535 27.05v-1.81zM508.53 6.58c8.77-1.28 17.64-.98 26.47-1.3v15.73c-4.61 6.07-9.68 11.77-14.74 17.48-13.39.14-26.74 1.41-40.12 1.87 9.35-11.36 18.65-22.75 28.39-33.78zM423.1 10.63c13.33-.66 26.66-1.45 39.99-2.01-8.74 11.66-18.7 22.51-28.02 33.76-13.39 1.23-26.84 1.55-40.27 2.08 9.05-11.57 18.77-22.64 28.3-33.83zM337.84 14.61c13.65.1 27.19-1.69 40.86-1.32-8.17 9.95-16.54 19.75-24.75 29.66-1.85 1.97-3.76 4.83-6.84 4.39-12.81-.32-25.48 1.75-38.29 1.2 10.03-11 18.93-22.97 29.02-33.93zM261.01 18.59c10.78.14 21.45-1.64 32.25-1.14-8.6 10.34-17.3 20.59-25.92 30.92-3 5-9.59 2.39-14.35 3.21-9.22 1.17-18.58.39-27.77 1.98.21-1.09.36-2.25 1.24-3.04 8.54-9.84 16.72-19.99 25.24-29.85 2.25-2.84 6.16-1.87 9.31-2.08zM167.47 23.44c13.43-.56 26.85-1.61 40.29-1.88-9.48 11.32-18.88 22.74-28.59 33.89-13.42.62-26.84 1.5-40.27 1.94 9.42-11.4 18.85-22.81 28.57-33.95zM81.99 27.64c13.35-.48 26.69-1.14 40.02-2.02-8.64 11.09-17.82 21.78-26.99 32.45-2.12 2.77-5.95 2.13-9.01 2.29-11-.26-21.89 1.62-32.89 1.09 9.95-10.99 18.88-22.86 28.87-33.81zM0 31.68c12.14.08 24.2-1.56 36.34-1.3l-26.46 31.58c-2.24 3.28-6.5 2.3-9.88 2.51v-32.79zM0 65.68c178.38-8.54 356.62-18.32 535-26.48v1.34c-178.31 9.09-356.68 17.93-535 26.95v-1.81zM522.35 78.55c4.21-.32 8.43-.48 12.65-.6v11.87c-4.07-3.92-8.6-7.33-12.65-11.27zM479.02 80.21c7.35-.19 14.71-.54 22.06-.85 10.77 9.62 21.87 18.89 32.27 28.91-6.47.36-12.95.3-19.4.93-2 .4-3.47-1.15-4.85-2.3-9.88-9.06-20.16-17.68-30.08-26.69zM436.82 82.1c6.73-.28 13.46-.72 20.19-.9 1.6-.22 2.59 1.21 3.71 2.07 10.13 8.95 20.3 17.85 30.38 26.85-7.28.3-14.55.5-21.83.69-10.66-9.75-21.71-19.05-32.45-28.71zM393.22 83.94c6.94-.36 13.89-.78 20.85-.92 1.61-.19 2.7 1.19 3.85 2.08 10.02 8.92 20.1 17.77 30.27 26.52-7.37 1-14.84.72-22.26 1.03-10.87-9.6-21.6-19.38-32.71-28.71zM351.58 85.67c7.08-.46 14.18-.72 21.28-.85 10.7 9.68 21.61 19.13 32.46 28.63-7.16.48-14.32.92-21.5 1.09-10.58-9.8-21.94-18.79-32.24-28.87zM307.91 87.52c7.36-.6 14.76-.6 22.13-1 10.77 9.68 21.81 19.03 32.45 28.85-7.18.08-14.34.93-21.51.88-11.27-9.24-21.94-19.28-33.07-28.73zM265.61 89.23c7.19-.37 14.4-.6 21.59-.96 10.92 9.71 21.93 19.3 32.87 28.97-7.07.42-14.2.09-21.24 1.05-11.21-9.53-22.07-19.46-33.22-29.06zM222.16 91.04c7.3-.31 14.6-.66 21.91-.99 11.16 9.55 22.2 19.26 33.14 29.06-7.53-.02-15.16.98-22.62.32-10.89-9.37-21.5-19.06-32.43-28.39zM180.27 93.14c7.11-1.09 14.38-1 21.57-1.11 10.74 9.57 21.43 19.21 32.43 28.48-7.13.97-14.33.75-21.5 1.16-10.78-9.57-21.62-19.07-32.5-28.53zM136.78 94.68c7.36-.6 14.75-.68 22.13-.97 10.92 9.51 21.72 19.16 32.56 28.75-7.23.25-14.44.91-21.68 1.03-11.13-9.45-21.87-19.37-33.01-28.81zM94.49 96.39c7.24-.48 14.5-.55 21.75-.97 10.42 9.95 22.01 18.67 32.12 28.91-7.06.02-14.17.99-21.17.69-11.01-9.41-21.66-19.25-32.7-28.63zM51.11 98.11c7.44.08 14.99-1.11 22.35-.56 10.93 9.52 21.85 19.06 32.72 28.66-7.56-.02-15.23 1.01-22.72.31-10.81-9.42-21.63-18.86-32.35-28.41zM9.12 100.02c7.16-.28 14.37-1.13 21.51-.75 10.82 9.59 21.94 18.86 32.42 28.81-7.2.19-14.39.48-21.59.61-10.68-9.67-21.7-18.96-32.34-28.67zM0 111.47c6.75 6.08 13.43 12.26 20.44 18.05-6.8.57-13.62.89-20.44 1v-19.05z"/></g></svg>