<svg width="171pt" height="171pt" viewBox="0 0 171 171" xmlns="http://www.w3.org/2000/svg"><path fill="#020201" d="M83.24 0h4.48c11.01.4 21.97 2.78 32.04 7.29 17.61 7.76 32.4 21.64 41.37 38.65-.75-.03-2.23-.09-2.98-.13-1.01-2.32-2.02-4.69-3.63-6.68-3.89-4.02-7.08-8.67-11.2-12.47-7.02-6.63-15.04-12.3-23.97-16.05-6.14-3.45-13.18-4.5-19.91-6.23-5.72-1.44-11.62-.85-17.44-.82-3.38.05-6.76.38-10.07 1.08-6.27 1.62-12.62 3.19-18.62 5.66l-4.56-1.84c10.72-5.24 22.57-8.02 34.49-8.46z"/><path fill="#201d1a" d="M82 3.56c5.82-.03 11.72-.62 17.44.82 6.73 1.73 13.77 2.78 19.91 6.23 8.93 3.75 16.95 9.42 23.97 16.05 4.12 3.8 7.31 8.45 11.2 12.47-2.03 1.84-4.56 2.68-7.28 2.4-.25-.2-.75-.61-1-.82 1.83-.45 3.59-1.14 5.17-2.18-2.09-2.21-4.5-4.07-7.13-5.58-.61.95-1.22 1.91-1.83 2.87-3.65-1.87-5.23-5.97-8.66-8.1-.61 1.71-.56 3.55-.86 5.32l-.5 2.06c.86 1.79 1.84 3.52 2.79 5.27-6.06-5.97-12.82-11.35-20.54-15.01-15.61-7.66-34.16-8.52-50.67-3.35-4.74 1.47-9.08 3.92-13.56 6.01.54.49 1.09.97 1.63 1.45-.6 1.23-.88 2.74-2 3.63-.6.77-2.29 1.23-1.86 2.45 1.92.08 3.33-1.81 5-2.56.98.14 1.54.7 1.67 1.68-1.86 1.52-4.02 2.64-5.72 4.35-1.03-1.9-1.9-3.89-2.83-5.84 1.68-1.39 3.2-2.98 4.41-4.8-10.74 5.43-18.84 14.98-25 25.13-.43-4.29 4.59-6.85 3.72-11.05 5.56-6.18 11.51-12.17 18.74-16.39 2.83-1.51 5.62-3.09 8.23-4.96l-3.41-.59c3.05-1.75 6.35-3.45 8.3-6.5.24-1.8-1.56-1.79-2.8-2.19l-.07 2c-1.05-.12-2.09-.25-3.14-.36-3.44 3.64-8.41 5.04-12.39 7.95-8.16 5.4-15.12 12.45-20.71 20.46-1.25 1.63-2.5 3.25-3.63 4.96-1.97 3.09-3.57 6.53-3.41 10.27 1.01.61 1.99 1.26 2.94 1.95.25 1.81-.33 3.59-.75 5.33-2.41-2.09-4.76-4.24-7.05-6.46 3.18-5.08 3.6-11.47 7.47-16.16 3.37-4.27 6.83-8.51 9.53-13.27 2.92-5.82 8.82-9.41 14.6-11.92-1.15 1.38-2.21 2.83-3.26 4.29 7.06-3.87 13.94-8.22 21.72-10.56.96.69 1.93 1.37 2.89 2.05.39-.97.78-1.94 1.17-2.9 3.64-.02 6.92-1.67 10.07-3.32-.64-.37-1.94-1.12-2.58-1.5 3.31-.7 6.69-1.03 10.07-1.08z"/><path fill="#3f3e3a" d="M53.31 10.3c6-2.47 12.35-4.04 18.62-5.66.64.38 1.94 1.13 2.58 1.5-3.15 1.65-6.43 3.3-10.07 3.32-.39.96-.78 1.93-1.17 2.9-.96-.68-1.93-1.36-2.89-2.05-7.78 2.34-14.66 6.69-21.72 10.56 1.05-1.46 2.11-2.91 3.26-4.29 3.83-2.05 7.53-4.31 11.39-6.28z"/><path d="M2.36 65.86c5.82-24.81 23.44-46.39 46.39-57.4l4.56 1.84c-3.86 1.97-7.56 4.23-11.39 6.28-5.78 2.51-11.68 6.1-14.6 11.92-2.7 4.76-6.16 9-9.53 13.27-3.87 4.69-4.29 11.08-7.47 16.16 2.29 2.22 4.64 4.37 7.05 6.46-1.52 4.88-2.54 9.97-2.17 15.12 2.55-8.31 3.86-17.16 8.6-24.64l.58 1.47c-7.88 15.84-9.13 34.8-3.46 51.55.91 2.67 1.97 5.29 3.22 7.82l-1.94 3.27c-1.61-3.57-3.28-7.13-4.47-10.87-.78-2.43-1.06-5.2-2.81-7.17-1.69-.68-4.01-.79-5.36.6-.66 1.33-.94 2.8-1.36 4.22-.4-.17-1.2-.51-1.6-.67.74-2.04 1.28-4.2 2.43-6.05 1.43-1.21 3.6-1.59 4.66-3.15 1.27-4.19.33-8.61-.08-12.85-.14 2.56-.26 5.13-.41 7.69-1.96.89-4.64 1.41-5.4 3.74-1.34 4.37-1.63 9.03-1.34 13.57.12 2.16 1.65 3.86 2.62 5.7 1.25 2.19 2.5 4.39 3.81 6.54.68.07 2.04.2 2.73.26-.12.68-.24 1.36-.35 2.04 3.37 1.29 4.98 4.64 6.88 7.45.69.92 1.36 1.86 2.23 2.62 1.92.03 3.81-.43 5.7-.73-1.09-2.02-2.2-4.02-3.34-6.01 1.92 1.73 3.88 3.62 6.53 4.1 5.57 6.15 11.82 11.75 19.14 15.76.09.78.23 1.56.41 2.34 1.98 1.61 4.26 2.77 6.38 4.16.36 1.62.08 3.79 1.84 4.64 6.47 4.05 13.97 6.6 21.66 6.48 8.94.86 17.59-2.02 25.94-4.8 5.11-1.76 9.69-4.75 13.96-8.01 4.71-3.7 10.33-6.12 14.66-10.32 4.83-4.55 10.68-7.75 15.75-12 .32 1.52.82 3.04.8 4.62-.9 2.9-3.95 4.85-3.75 8.15-8.73 10.22-19.88 18.44-32.38 23.43-1.93-.15-3.91-.31-5.78.31-5.48 1.72-11.27.85-16.9 1.1-9.37.08-18.99 1.02-28.09-1.77-4.7-1.17-8.65-4.06-13.01-6.03-3.83-1.67-7.14-4.26-10.85-6.17-6.55-3.1-10.24-9.8-15.93-14.04-1.38-.77-2.93-1.14-4.4-1.68-3.23-.82-5.28-3.98-8.74-4.25-8.9-13.29-13.64-29.2-13.98-45.16v-2.52c.3-6.18.81-12.38 2.36-18.39zm71.81 4.43c.35-.14 1.05-.43 1.4-.58.03 1.25-.33 2.56.08 3.78.7 1.01 1.56 1.91 2.37 2.84.76-1.09 2.31-1.85 2.28-3.36-.7-1.26-1.53-2.45-2.31-3.67 1.05.89 2.3 1.62 3.1 2.78.02 1.25-.06 2.5-.24 3.73-1.25 1.83-3.43 1.9-5.41 1.94-.68-.49-2.03-1.48-2.71-1.98 1.03-1.64 1.21-3.6 1.44-5.48zm20.82 18.77c1.5-2.68 4.84-3.02 7.41-1.73l1.67.58.93 1.25-1.07-.7-.67-.47c-.15 1.79.69 3.99-.81 5.39-1.55.8-3.19 1.43-4.88 1.83l-1-.24c-.74-1.75-3.32-3.95-1.58-5.91m2.15-.88c-1.92 1.16-.3 2.98.4 4.27 1.22-.07 2.44-.1 3.64-.29l.6-3.54c-1.42-.28-3.56-2.31-4.64-.44zm-17.26 13.43c.31-1.87.5-3.93 2.11-5.2l1.05.59-1.65 2.19c.94 1.39 1.73 3.21 3.69 3.3 1.96-.61 2.79-2.68 3.84-4.24.16 1.42.32 2.83.49 4.25l-.06.66c-.1 1.09-.27 2.18-.52 3.25l-.28-3.22c-1.71.64-3.43 1.24-5.24 1.5-1.06-.59-2.14-1.14-3.23-1.67.27.67.81 2 1.09 2.66l-.79-.27c-.22-.39-.67-1.17-.9-1.56l.14-.78c.06-.37.19-1.1.26-1.46z" fill="#12110f"/><path fill="#3d3a37" d="M58.53 11.83c1.24.4 3.04.39 2.8 2.19-1.95 3.05-5.25 4.75-8.3 6.5l3.41.59c-2.61 1.87-5.4 3.45-8.23 4.96l-.25-1.51-.23-.99c-.29-.14-.88-.43-1.17-.58-1.21-.54-2.41-1.06-3.63-1.57 3.98-2.91 8.95-4.31 12.39-7.95 1.05.11 2.09.24 3.14.36l.07-2z"/><path d="M64.01 22.01c16.51-5.17 35.06-4.31 50.67 3.35 7.72 3.66 14.48 9.04 20.54 15.01 7.16 8.39 12.93 18.16 15.57 28.94 2.88 11.08 2.22 22.76.25 33.93-.66-.85-1.34-1.7-2.03-2.53l-2.16-.58c1.24-.49 2.47-1.04 3.69-1.59.38-3.59.98-7.17 1-10.8.4-14.59-4.25-29.29-13.22-40.83-2.06-2.61-4.3-5.07-6.44-7.61-2.08 2.93-4.11 5.91-6.08 8.93 2.03-.98 4.02-2.1 6.22-2.63 2.43.15 4.34 1.83 5.72 3.7 6.66 8.79 10.43 19.52 11.47 30.45-.14 4.06-.24 8.13-.68 12.17-.19 1.68-1.21 3.9-3.25 3.56.78-1.45 2-2.79 2.1-4.51.8-10.59-.47-21.57-5.25-31.17-2.18-4.29-4.32-8.81-7.92-12.11-1.69-1.62-3.96-.68-5.43.71-3.91 3.19-8.05 6.24-11.03 10.36.13-.96.22-1.93.43-2.88 2.28-2.62 4.53-5.29 6.36-8.26 2.12-3.41 5-6.34 6.63-10.06-1.25.8-2.48 1.64-3.69 2.49-2.16-1.62-4.28-3.28-6.34-5.01.65-1.37 1.27-2.76 1.58-4.26-4.61 4.42-9.29 8.94-12.92 14.22l-1.22-1.75c1.32-3.14 2.93-6.14 4.26-9.27.88-2.28-1.11-4.17-2.95-5.11-13.64-6.13-29.65-7.28-43.78-2.11-1.76.73-2.88 2.37-4.21 3.65.18-1.08.39-2.16.64-3.23 7.04-4.1 15.47-4.89 23.46-4.9 7.9-.13 15.67 1.84 22.97 4.71 2.29.92 4.96 2.31 5.28 5.05.15 2.49-1.16 4.78-1.79 7.12 2.98-2.66 5.74-5.55 8.5-8.45-6.94-3.86-14.22-7.32-22.04-8.95-11.59-2.45-23.74-1.54-34.98 2.14-3.86.97-7.61 2.46-10.82 4.87.05 1.4.09 2.81.1 4.22-1.67.75-3.08 2.64-5 2.56-.43-1.22 1.26-1.68 1.86-2.45 1.12-.89 1.4-2.4 2-3.63-.54-.48-1.09-.96-1.63-1.45 4.48-2.09 8.82-4.54 13.56-6.01m59.62 11.22l-.79.63c1.27 1.91 3.26 3.24 5.27 4.28.19-.39.56-1.16.75-1.54-1.76-1.09-3.27-2.67-5.23-3.37zm-1.45 5.9c1.3 1.14 2.47 2.41 3.66 3.66l-.93 2.02c-.59-.78-1.17-1.56-1.74-2.36-.35-1.1-.68-2.21-.99-3.32zm-48.28 21.13c.79-.81 1.59-1.62 2.39-2.42 1.76 2.43 3.65 4.77 5.47 7.15l.42 1c-1.12-1.12-2.2-2.27-3.27-3.42-1.21-.23-2.41-.43-3.61-.7-.19-.21-.59-.63-.79-.84l-.61-.77zm23.05 90.88c9.77-1.16 18.93-5.57 26.97-11.12l2.51-.12c-10.86 8.57-24.52 13.31-38.3 13.91.13-.83.39-2.49.51-3.32 1.01-2.55 1.62-5.29.97-8.02l1.62.39c1.17 3.16 2.02 7.16 5.72 8.28z" fill="#efc628"/><path fill="#816d17" d="M63.94 23.9c11.24-3.68 23.39-4.59 34.98-2.14 7.82 1.63 15.1 5.09 22.04 8.95-2.76 2.9-5.52 5.79-8.5 8.45.63-2.34 1.94-4.63 1.79-7.12-.32-2.74-2.99-4.13-5.28-5.05-7.3-2.87-15.07-4.84-22.97-4.71-7.99.01-16.42.8-23.46 4.9.42-1.11.92-2.19 1.4-3.28z"/><path d="M22.22 41.88c5.59-8.01 12.55-15.06 20.71-20.46 1.22.51 2.42 1.03 3.63 1.57-4.06 3.52-9.29 5.87-12.14 10.61 4.95-2.34 8.53-6.76 13.54-9.04l.25 1.51c-7.23 4.22-13.18 10.21-18.74 16.39l-.08-1.93c1.54-2.11 3.43-3.94 4.94-6.08-4.96 1.48-6.65 6.93-10.29 10.11-.45-.67-1.36-2.01-1.82-2.68zm75.38 29.57h.91l.54-.01-.15.42-.25.74 1.14 1.27c-.47 1.22-.99 2.41-1.51 3.6-.2-2.01-.35-4.02-.68-6.02z" fill="#514f4c"/><path fill="#2f2d2a" d="M46.56 22.99c.29.15.88.44 1.17.58l.23.99c-5.01 2.28-8.59 6.7-13.54 9.04 2.85-4.74 8.08-7.09 12.14-10.61z"/><path fill="#ab8f1e" d="M53.12 28.77c3.21-2.41 6.96-3.9 10.82-4.87-.48 1.09-.98 2.17-1.4 3.28-.25 1.07-.46 2.15-.64 3.23-.24 1.42-.45 2.83-.67 4.25-1.45-1.17-2.89-2.34-4.35-3.49 4.51 5.69 8.16 11.97 12.45 17.82l-1.99 1.85-.65.7-.27.02c-1.25-4.08-4.21-7.25-6.72-10.58-1.04-1.58-2.08-3.16-3.22-4.67l-.97.54-.62-2.18c-.13-.98-.69-1.54-1.67-1.68-.01-1.41-.05-2.82-.1-4.22z"/><path fill="#735d12" d="M66.11 26.76c14.13-5.17 30.14-4.02 43.78 2.11 1.84.94 3.83 2.83 2.95 5.11-1.33 3.13-2.94 6.13-4.26 9.27l-.42-.65c1.15-2.43 2.21-4.9 3.25-7.38-2.23-1.07-4.43-2.19-6.7-3.18 2.3.4 4.63 2.4 6.92 1.68l.21-.85c-6.71-3.9-14.49-5.47-22.14-6.18l-.44 1.89c-.59-.1-1.78-.31-2.38-.42.34-1.01.68-2.02 1.02-3.02-.39.37-1.16 1.12-1.55 1.5-6.44-.15-12.93.69-19.04 2.75-1.73.55-3.23 1.6-4.61 2.75l2.24.05c-.38.19-1.13.59-1.5.79 1.42 5.51 3.5 10.91 6.58 15.72l-.69.29c-4.29-5.85-7.94-12.13-12.45-17.82 1.46 1.15 2.9 2.32 4.35 3.49.22-1.42.43-2.83.67-4.25 1.33-1.28 2.45-2.92 4.21-3.65z"/><path d="M86.35 26.64c.39-.38 1.16-1.13 1.55-1.5-.34 1-.68 2.01-1.02 3.02.6.11 1.79.32 2.38.42l.8.15c-8.5-.68-17.13.46-25.12 3.46l-2.24-.05c1.38-1.15 2.88-2.2 4.61-2.75 6.11-2.06 12.6-2.9 19.04-2.75zm-37.18 12.38c1.7-1.71 3.86-2.83 5.72-4.35l.62 2.18c-1.87 1.18-3.7 2.4-5.52 3.65l-.82-1.48zm63.02 4.99c2.15-2.36 4.22-4.85 6.81-6.75 1.12.51 2.16 1.18 3.18 1.87.31 1.11.64 2.22.99 3.32l-1.06-.75c-1.35-1-2.71-1.96-4.08-2.93-1.01 1.3-2.03 2.6-3.05 3.9-1.27.35-1.92 1.14-1.95 2.39l-.84-1.05zm-69.49.73l.98.51c.5 1.92-2.14 3.1-2.91 4.71-.18.23-.55.67-.73.89-2.15 2.44-3.96 5.15-5.32 8.1-.23.42-.68 1.28-.9 1.71-2.71 4.69-4.29 9.94-5.38 15.22-.83 3.82-.64 7.78-1.47 11.61-2.31-11.9 1.49-24.39 8.31-34.2 2.23-3.04 4.36-6.28 7.42-8.55zm55.79 33.22c1.09 2.36 1.75 4.88 2.1 7.45l-2.99-.41-.17-4.32c-1.46-.34-2.92-.68-4.37-1.04l-.9-.24c2.17-.15 4.28-.71 6.33-1.44zm5.44 10.5l1.07.7 1.5.98c-.55 1.56-1.07 3.12-1.7 4.64-.62.05-1.85.15-2.47.21 1.02-2.03 1.42-4.29 1.6-6.53zm-8.6 6.13l1.24.38 1 .24-.12.15c-2.25 2.53-4.67 4.93-7.78 6.37.2-.56.59-1.69.79-2.26 1.58-1.67 3.23-3.27 4.87-4.88z" fill="#fdd125"/><path fill="#ebca29" d="M89.7 26.69c7.65.71 15.43 2.28 22.14 6.18l-.21.85c-2.29.72-4.62-1.28-6.92-1.68-4.73-1.7-9.66-2.76-14.65-3.31l-.8-.15.44-1.89z"/><path d="M132.93 33.04c.3-1.77.25-3.61.86-5.32 3.43 2.13 5.01 6.23 8.66 8.1.61-.96 1.22-1.92 1.83-2.87 2.63 1.51 5.04 3.37 7.13 5.58-1.58 1.04-3.34 1.73-5.17 2.18.25.21.75.62 1 .82 2.72.28 5.25-.56 7.28-2.4 1.61 1.99 2.62 4.36 3.63 6.68.75.04 2.23.1 2.98.13 5.1 9.75 8.45 20.47 9.38 31.44-1.44 2.07-2.63 4.28-3.78 6.52-.64-2.26-1.09-4.56-1.36-6.88-.57-4.53-2.01-8.89-3.17-13.29-1.19-4.45-2.62-8.86-4.89-12.89-.48 1.17-1.33 2.39-.68 3.68 1.18 3.55 3.08 7.04 2.33 10.92-1.92-2.07-3.09-4.64-4.06-7.25-.87.52-1.74 1.05-2.61 1.58-4.99-9.83-11.17-19.25-19.36-26.73zm-64.88 52.49l5.23-.08c.78 1.13 1.63 2.22 2.23 3.46.43 2-1.04 3.56-2.5 4.66-2.37.46-5.19-.16-6.52-2.34.15-1.67.46-3.31.92-4.93l.64-.77m1.04 1.71c.2.93.4 1.86.61 2.78.65.43 1.94 1.28 2.58 1.7 1.34-1.02 2.26-2.34 2.36-4.08-1.85-.22-3.7-.32-5.55-.4z" fill="#0b0909"/><path d="M25.75 53.51c6.16-10.15 14.26-19.7 25-25.13-1.21 1.82-2.73 3.41-4.41 4.8-5.09 2.79-9.15 7.04-12.6 11.63 2.67-.3 4.82-1.97 7.2-3.05 1.83.12 3.59.71 5.37 1.17-1.17-2.41-2.31-4.84-3.27-7.33 1.07.69 2.3 1.31 2.86 2.54 2.04 3.5 3.77 7.18 5.22 10.96l-1.35.56-2.19-1.92-1.07-1.18c-1.13-1.4-2.38-2.7-3.9-3.68-1.75 1.11-3.63 2.13-4.93 3.79-4.43 5.43-7.74 11.7-10.15 18.25-2.34 5.75-3.76 11.89-4.14 18.09-.22 2.38.27 4.74 1.11 6.95l-.17.1-.19.13-.99 1.76c4.35-1.83 9.08-1.1 13.67-1.2-1.14 1.01-2.31 1.98-3.51 2.92 1.46-.36 2.93-.69 4.39-1.01l-.47-1.02c2.75-.68 5.45-1.53 8.09-2.58 2.09-.78 4.09-1.79 6.14-2.67-1.59 1.73-3.26 3.39-5.03 4.94.63.27 1.88.81 2.5 1.08l.99.02c-5.3.62-10.37 2.29-15.51 3.63-3.81.73-7.95 1.12-11.15 3.54.66 2.1 1.27 4.22 2 6.3.44.01 1.32.03 1.76.05 2.83-.25 5.61-.85 8.3-1.78l1.25-.35c3.5-.44 6.94-1.23 10.32-2.22l1.72 1.31c-1.72.92-3.42 1.85-5.11 2.83-6.9-.63-13.68 4.08-20.53 1.82l-2.05.33c-5.67-16.75-4.42-35.71 3.46-51.55.46-.94.92-1.88 1.37-2.83zm104.14 59.88l1.94-1.72c4.19 1.2 8.4 2.35 12.66 3.32-1.68 3.5-3.98 6.85-4.19 10.85-3.91 5.32-8.62 10.06-13.87 14.06l-2.51.12c4-3.42 6.98-7.8 10.37-11.77 2.85-3.04 2.14-7.48 2.88-11.25-1.1-.71-2.19-1.41-3.33-2.03-1.33-.51-2.65-1.01-3.95-1.58z" fill="#d8b424"/><path d="M109.8 45c3.63-5.28 8.31-9.8 12.92-14.22-.31 1.5-.93 2.89-1.58 4.26 2.06 1.73 4.18 3.39 6.34 5.01 1.21-.85 2.44-1.69 3.69-2.49-1.63 3.72-4.51 6.65-6.63 10.06-1.83 2.97-4.08 5.64-6.36 8.26.88-4.15 4.41-6.92 6.42-10.51l-2.54.43c.44-.54 1.31-1.63 1.74-2.17-.42-.49-1.27-1.45-1.69-1.93l1.06.75c.57.8 1.15 1.58 1.74 2.36l.93-2.02c-1.19-1.25-2.36-2.52-3.66-3.66-1.02-.69-2.06-1.36-3.18-1.87-2.59 1.9-4.66 4.39-6.81 6.75-1.02.89-2.05 1.76-3.1 2.61.23-.54.47-1.08.71-1.62zm-15.93 57.98c1.05-1.01 2.08-2.05 3.22-2.96.97.3 1.93.65 2.87 1.04l1.12 1.37c-1.73.88-3.45 1.79-5.17 2.7.35.8.7 1.6 1.05 2.41-1.49 1.4-2.5 3.17-3.11 5.12.79-.16 2.36-.48 3.15-.65-1.22.53-2.45 1.03-3.67 1.54-.1-1.78-.24-3.55-.42-5.32l1.63-.59-.28-1.8-.39-2.86z" fill="#604c0f"/><path fill="#c0a120" d="M33.74 44.81c3.45-4.59 7.51-8.84 12.6-11.63.93 1.95 1.8 3.94 2.83 5.84l.82 1.48c.86 1.53 1.84 2.99 2.81 4.45 2.65 5.29 5.84 10.28 9.15 15.18-.75 1.12-1.49 2.24-2.21 3.37-2.34-5.21-5.5-10.19-9.97-13.84l1.35-.56c-1.45-3.78-3.18-7.46-5.22-10.96-.56-1.23-1.79-1.85-2.86-2.54.96 2.49 2.1 4.92 3.27 7.33-1.78-.46-3.54-1.05-5.37-1.17-2.38 1.08-4.53 2.75-7.2 3.05z"/><path d="M123.63 33.23c1.96.7 3.47 2.28 5.23 3.37-.19.38-.56 1.15-.75 1.54-2.01-1.04-4-2.37-5.27-4.28l.79-.63zm-27.6 23.24c2.42-2.05 4.79-4.16 7.05-6.38-2.09 3.05-4.7 5.69-6.94 8.63-.97 1.3-1.95 2.59-2.96 3.86.14-1.9.86-3.67 1.6-5.41-5.67-1.41-11.55-1.84-17.35-1.01 1.68 2.35 3.21 5.1 5.92 6.41 1.93.49 3.93-.12 5.87-.33.4-.05 1.19-.17 1.58-.23-.18.29-.56.86-.75 1.15.03.43.1 1.3.14 1.74l-1.29 1.83c-1.68-.75-3.43-1.2-4.97.19-.73-.63-1.46-1.27-2.17-1.93-1.82-2.38-3.71-4.72-5.47-7.15-.48-.75-.95-1.49-1.41-2.24 6.99-1.45 14.36-1.66 21.15.87z" fill="#584a0f"/><path fill="#201f1d" d="M132.43 35.1l.5-2.06c8.19 7.48 14.37 16.9 19.36 26.73.87-.53 1.74-1.06 2.61-1.58.97 2.61 2.14 5.18 4.06 7.25.75-3.88-1.15-7.37-2.33-10.92-.65-1.29.2-2.51.68-3.68 2.27 4.03 3.7 8.44 4.89 12.89 1.16 4.4 2.6 8.76 3.17 13.29.27 2.32.72 4.62 1.36 6.88 1.15-2.24 2.34-4.45 3.78-6.52 1 12.07-.02 24.49-4.37 35.87.72-4.16 1.57-8.31 1.85-12.53-3.95 3.59-4.98 9.04-7.31 13.63-1.43 2.9-2.4 6-2.8 9.21l4.4-1.1c-3.21 6.7-7.29 13-12.22 18.57-.2-3.3 2.85-5.25 3.75-8.15.02-1.58-.48-3.1-.8-4.62-5.07 4.25-10.92 7.45-15.75 12-4.33 4.2-9.95 6.62-14.66 10.32-4.27 3.26-8.85 6.25-13.96 8.01-8.35 2.78-17 5.66-25.94 4.8-7.69.12-15.19-2.43-21.66-6.48-1.76-.85-1.48-3.02-1.84-4.64-2.12-1.39-4.4-2.55-6.38-4.16-.18-.78-.32-1.56-.41-2.34 3.44 1.71 6.91 3.44 10.58 4.61.96.32 1.92.62 2.89.92-1.55.41-3.1.83-4.66 1.25 6.75 2.06 13.55 4.21 20.61 4.83 2.51.18 4.81 1.24 7.21 1.87 1.88-.52 2.98-2.28 4.33-3.55-2.16-.16-4.28-.54-6.36-1.08.54-1.38 1.08-2.76 1.63-4.13-.12.83-.38 2.49-.51 3.32 13.78-.6 27.44-5.34 38.3-13.91 5.25-4 9.96-8.74 13.87-14.06 4.67-5.81 8.19-12.56 10.26-19.72.19-.95.35-1.91.48-2.88 1.97-11.17 2.63-22.85-.25-33.93-2.64-10.78-8.41-20.55-15.57-28.94-.95-1.75-1.93-3.48-2.79-5.27m24.04 61.94c-1.11 4.07-3.18 7.77-4.78 11.64-1.14 2.74-1.04 5.85-2.48 8.48-1.07 2.12-2.19 4.23-3.19 6.39l1.87-.19c-.23 1.11-.45 2.22-.67 3.34l3.25-.21c.56-2.07 1.91-3.51 3.99-4.08-.06-.36-.18-1.06-.23-1.41 4.05-6.88 7.1-14.67 7.54-22.7-1.75-.48-3.52-.91-5.3-1.26z"/><path fill="#302f2b" d="M24.04 44.56c3.64-3.18 5.33-8.63 10.29-10.11-1.51 2.14-3.4 3.97-4.94 6.08l.08 1.93c.87 4.2-4.15 6.76-3.72 11.05-.45.95-.91 1.89-1.37 2.83l-.58-1.47c-4.74 7.48-6.05 16.33-8.6 24.64-.37-5.15.65-10.24 2.17-15.12.42-1.74 1-3.52.75-5.33-.95-.69-1.93-1.34-2.94-1.95-.16-3.74 1.44-7.18 3.41-10.27.16.76.49 2.27.66 3.02 2.52-.07 5.37-.09 6.63-2.73-.62-.85-1.24-1.71-1.84-2.57z"/><path d="M125.8 48.23c1.97-3.02 4-6 6.08-8.93 2.14 2.54 4.38 5 6.44 7.61 8.97 11.54 13.62 26.24 13.22 40.83-1.37-2.46-1.95-5.23-2.33-7.99-1.04-10.93-4.81-21.66-11.47-30.45-1.38-1.87-3.29-3.55-5.72-3.7-2.2.53-4.19 1.65-6.22 2.63zm-102.54 51.37c3.2-2.42 7.34-2.81 11.15-3.54-1.78.6-3.55 1.24-5.33 1.83.22.82.65 2.45.86 3.27-1.22-.48-2.23-2.83-3.68-1.85-.74 2.16.53 4.46.76 6.64-.44-.02-1.32-.04-1.76-.05-.73-2.08-1.34-4.2-2-6.3z" fill="#876d17"/><path fill="#2a2407" opacity=".64" d="M59.7 40.98c2.51 3.33 5.47 6.5 6.72 10.58-2.69-3.23-4.79-6.87-6.72-10.58z"/><path fill="#3e3d39" d="M18.59 46.84c1.13-1.71 2.38-3.33 3.63-4.96.46.67 1.37 2.01 1.82 2.68.6.86 1.22 1.72 1.84 2.57-1.26 2.64-4.11 2.66-6.63 2.73-.17-.75-.5-2.26-.66-3.02z"/><path d="M37.68 46.67c1.3-1.66 3.18-2.68 4.93-3.79 1.52.98 2.77 2.28 3.9 3.68l-1.68-.6c-1.4 1.28-2.76 2.62-4.06 4 .77-1.61 3.41-2.79 2.91-4.71l-.98-.51c-3.06 2.27-5.19 5.51-7.42 8.55-6.82 9.81-10.62 22.3-8.31 34.2.83-3.83.64-7.79 1.47-11.61 1.09-5.28 2.67-10.53 5.38-15.22-1.95 5-3.96 10.04-4.76 15.38-.83 4.74-.82 9.56-.68 14.35l4.27-.45c4.23-.07 8.44-.59 12.67-.88-2.64 1.05-5.34 1.9-8.09 2.58l.47 1.02c-1.46.32-2.93.65-4.39 1.01 1.2-.94 2.37-1.91 3.51-2.92-4.59.1-9.32-.63-13.67 1.2l.99-1.76.19-.13.17-.1c-.84-2.21-1.33-4.57-1.11-6.95.38-6.2 1.8-12.34 4.14-18.09 2.41-6.55 5.72-12.82 10.15-18.25zm44.88 28.66c2.23.17 4.69-.17 6.63 1.2.35.34 1.04 1.03 1.38 1.37-2.38-.7-4.77-1.37-7.16-2.04l.53 1.73c-.63-.03-1.9-.1-2.53-.14.25-.25.74-.77.99-1.03l.16-1.09z" fill="#4e3f0c"/><path fill="#846f17" d="M108.16 42.6l.42.65 1.22 1.75c-.24.54-.48 1.08-.71 1.62 1.05-.85 2.08-1.72 3.1-2.61l.44 1.61c-3.55 5.2-8.7 9.24-11.55 14.91l-.97-.85-.86.97c-1.04-.65-2.07-1.29-3.11-1.93 2.24-2.94 4.85-5.58 6.94-8.63 1.85-2.39 3.57-4.88 5.08-7.49z"/><path fill="#1f1808" opacity=".48" d="M113.03 45.06c.03-1.25.68-2.04 1.95-2.39-.1.47-.32 1.41-.43 1.88l-.79.65-.73-.14z"/><path fill="#7c6514" d="M52.8 44.95c4.45 5.72 8.82 11.51 13.55 17.02 1.19-1.03 2.37-2.07 3.58-3.08l.54-.59c-.82-1.47-1.75-2.86-2.71-4.23-.58-.69-1.76-1.51-1.07-2.53l.65-.7c1.87 3.35 4.1 6.48 6.56 9.42l.61.77c-.4 1.37-.83 2.73-1.29 4.09-1.15-1.53-.8-5.07-3.24-5.11-1.48.06-2.3 1.41-3.45 2.14 1.66 2.04 3.64 3.79 5.88 5.17l.58-1.54c1.07-.76 2.18-.69 3.32.19-1.51 1.28-3.07 2.49-4.67 3.65.09.95.17 1.9.24 2.86l.07 2.52c-1.75-2.15-3.08-4.59-4.56-6.93-.42-.65-1.27-1.94-1.7-2.59-1.21-1.81-2.5-3.56-3.74-5.35-3.31-4.9-6.5-9.89-9.15-15.18z"/><path fill="#967e18" d="M122.06 45.8l2.54-.43c-2.01 3.59-5.54 6.36-6.42 10.51-.21.95-.3 1.92-.43 2.88-1.21 1.94-2.61 3.76-3.99 5.57-.33-.12-.99-.37-1.31-.5-1.68-1.17-3.39.57-3.42 2.29.19.26.55.78.73 1.04l.4.65c-.35.6-1.05 1.78-1.4 2.37-.51-1.27-1.01-2.55-1.51-3.83-.65.91-1.3 1.83-1.91 2.77l-2-1.41c2.6-2.38 5.36-4.71 6.95-7.93 4.06-4.55 8.03-9.16 11.77-13.98z"/><path fill="#6f5c13" d="M128.78 48.4c1.47-1.39 3.74-2.33 5.43-.71 3.6 3.3 5.74 7.82 7.92 12.11 4.78 9.6 6.05 20.58 5.25 31.17-.1 1.72-1.32 3.06-2.1 4.51-2.61-.35-5.22-.64-7.84-.85l1.38-.1c1.01-.03 2.01-.05 3.02-.07 1.24-8.98.52-18.14-2.05-26.83 1.99 4.86 3.02 10.09 3.03 15.35.13 3.03-.29 6.1.25 9.1l1.32 1.28c.61-3.07 1.08-6.2.93-9.34-.43-9.4-2.81-18.8-7.49-27-1.8-3.14-3.68-6.4-6.59-8.65-.41.26-1.22.79-1.63 1.06l-.83-1.03z"/><path d="M47.58 47.74l2.19 1.92c4.47 3.65 7.63 8.63 9.97 13.84l.44 1.37c-4.3-5.64-7.94-11.76-12.6-17.13zm13.51 18.5l.79 1.09c.91 0 1.82-.06 2.73-.18-.28.77-.56 1.54-.83 2.31.31.58.93 1.73 1.24 2.3l3.5 6.01-2.36-.41c.17 1.36.35 2.72.53 4.08-3.44 1.33-6.86 2.72-10.4 3.75-1.65.22-3.31.51-4.83 1.2-2.05.88-4.05 1.89-6.14 2.67-4.23.29-8.44.81-12.67.88 7.63-1.35 15.18-3.17 22.48-5.8.35-6.22 2.69-12.1 6.34-17.11l-.38-.79m2.58 8.33c-.95 2.24-1.64 4.57-2.54 6.84-1.58.04-3.16.07-4.74.1l-.05 2.29 1.53-1.01c4.06-.49 7.98-4.55 7.1-8.7l-1.3.48zm42.83 15.57c.29.19.88.55 1.17.73-.5 1.04-1.01 2.08-1.52 3.11 1.69 1.48 3.35 3 5.08 4.44 8.63 3.67 17.44 6.93 25.96 10.86.63-1.4 1.25-2.8 1.85-4.21-.78 1.36-.76 2.63.08 3.82l1.55.57c1.27-1.75 1.58-3.94 2.18-5.96l1.76.62c-.77 1.12-1.61 2.21-2.11 3.49-.42 1.06-.83 2.13-1.21 3.21-9.07-2.58-17.97-5.77-26.76-9.17-1.58-.69-3.12-1.45-4.65-2.24-1.09-2.13-2.81-3.81-5.08-4.63.63-1.52 1.15-3.08 1.7-4.64zm-42.07 8.64c1.35-.51 2.69-1.06 4.02-1.62.42.14 1.26.43 1.68.58-1.59 1.06-3.19 2.11-4.72 3.26.79.16 2.37.49 3.16.66-.68.47-1.36.92-2.05 1.36l-1.46-1.45-2.55.28c.64-.3 1.91-.88 2.55-1.17l-.63-1.9zm-5.81 3.8c3.31.43 5.09 3.4 7.53 5.28 2.38 1.97 5.28 3.11 8.02 4.48l.1 1.74c-3.29-1.37-6.48-2.96-9.65-4.59-.17-.14-.51-.41-.68-.54-.04-1.63-.84-4.59-3.05-3.39-.55-.76-1.11-1.51-1.68-2.24l-.59-.74z" fill="#302807"/><path fill="#95801b" d="M67.34 50.84l1.99-1.85.69-.29c1.58 2.33 3.4 4.49 4.86 6.9.46.75.93 1.49 1.41 2.24-.8.8-1.6 1.61-2.39 2.42-2.46-2.94-4.69-6.07-6.56-9.42z"/><path d="M129.61 49.43c.41-.27 1.22-.8 1.63-1.06 2.91 2.25 4.79 5.51 6.59 8.65 4.68 8.2 7.06 17.6 7.49 27 .15 3.14-.32 6.27-.93 9.34l-1.32-1.28c-.54-3-.12-6.07-.25-9.1-.01-5.26-1.04-10.49-3.03-15.35-2.34-6.59-5.7-12.82-10.18-18.2zm-33.47 9.29c1.04.64 2.07 1.28 3.11 1.93-1.23 1.41-2.53 2.76-3.7 4.22-.8-.76-1.6-1.5-2.37-2.29 1.01-1.27 1.99-2.56 2.96-3.86zm9.2 10.4c.61-.94 1.26-1.86 1.91-2.77.5 1.28 1 2.56 1.51 3.83-.92 1.44-1.9 2.83-2.92 4.2-.62-1.02-1.24-2.04-1.86-3.05.34-.56 1.02-1.66 1.36-2.21zm2.1 15.61l.95.42c.96.44 1.94.86 2.91 1.27-.08 1.18-.17 2.37-.26 3.56-1.58-.56-3.15-1.12-4.73-1.66.79-.36 1.58-.71 2.37-1.06l-1.24-2.53zm-32.98 59.16c.18 2.16.36 4.33.52 6.5-1.99-.27-3.97-.58-5.94-.95 1.11-1.08 2.2-2.17 3.26-3.29.72-.76 1.44-1.51 2.16-2.26z" fill="#f2cb29"/><path d="M34.72 58.95c1.36-2.95 3.17-5.66 5.32-8.1-1.73 2.73-3.52 5.41-5.32 8.1zm-21.11 24.09c.41 4.24 1.35 8.66.08 12.85-1.06 1.56-3.23 1.94-4.66 3.15-1.15 1.85-1.69 4.01-2.43 6.05.4.16 1.2.5 1.6.67.42-1.42.7-2.89 1.36-4.22 1.35-1.39 3.67-1.28 5.36-.6 1.75 1.97 2.03 4.74 2.81 7.17-.24 1.18-.44 2.36-.6 3.56l-.26 1.92c-1.44-1.78-2.85-3.59-4.3-5.36-.57 1.77-.63 3.61-.23 5.42l-3.26.09c-.97-1.84-2.5-3.54-2.62-5.7-.29-4.54 0-9.2 1.34-13.57.76-2.33 3.44-2.85 5.4-3.74.15-2.56.27-5.13.41-7.69z" fill="#2c2925"/><path fill="#927817" d="M77.43 56.16c5.8-.83 11.68-.4 17.35 1.01-.74 1.74-1.46 3.51-1.6 5.41.77.79 1.57 1.53 2.37 2.29-.86 1.2-1.68 2.43-2.55 3.62-.67.53-1.32 1.09-1.95 1.68-.61.67-1.19 1.38-1.72 2.13-2.25.05-4.5.07-6.75.09-.1-.4-.32-1.19-.43-1.59-.99-.98-2.19-1.71-3.36-2.44l-1.01-.64-.56-2.51c-.31.25-.61.5-.91.76-1.14-.88-2.25-.95-3.32-.19l.23-.66c.46-1.36.89-2.72 1.29-4.09.2.21.6.63.79.84 1.2.27 2.4.47 3.61.7 1.07 1.15 2.15 2.3 3.27 3.42l-.42-1c.71.66 1.44 1.3 2.17 1.93.99.86 1.99 1.72 2.99 2.57.49-.69 1.48-2.07 1.98-2.76l1.29-1.83c-.04-.44-.11-1.31-.14-1.74.19-.29.57-.86.75-1.15 2.68-1.66-1.16-4.59-1.97-1.62l.39 1.85c-1.94.21-3.94.82-5.87.33-2.71-1.31-4.24-4.06-5.92-6.41z"/><path fill="#1c1704" d="M88.83 60.39c.81-2.97 4.65-.04 1.97 1.62-.39.06-1.18.18-1.58.23l-.39-1.85z"/><path fill="#8a7919" d="M61.95 60.13c1.24 1.79 2.53 3.54 3.74 5.35l-1.08 1.67c-.91.12-1.82.18-2.73.18l-.79-1.09c-.23-.34-.69-1.03-.91-1.37l-.44-1.37c.72-1.13 1.46-2.25 2.21-3.37z"/><path fill="#c8a421" d="M66.53 62.15c1.15-.73 1.97-2.08 3.45-2.14 2.44.04 2.09 3.58 3.24 5.11l-.23.66-.58 1.54c-2.24-1.38-4.22-3.13-5.88-5.17z"/><path d="M106.27 63.76c1.33-1.34 2.67-2.66 4.02-3.98-1.59 3.22-4.35 5.55-6.95 7.93l2 1.41c-.34.55-1.02 1.65-1.36 2.21-1.41-.15-2.83-.3-4.24-.41l2.11-1.58c-1.83-1.37-3.72-2.65-5.72-3.75.87 1.8 1.8 3.56 2.68 5.35-.9-.87-1.89-1.62-2.98-2.26l-.21-.74-1.65.15-.97.4c.87-1.19 1.69-2.42 2.55-3.62 1.17-1.46 2.47-2.81 3.7-4.22l.86-.97.69 2.64c.36-.79.75-1.57 1.14-2.35 1.5 1.2 2.93 2.48 4.33 3.79zm13.46 67.03c4.13-2.99 7.6-6.75 11.09-10.42-.7 1.68-1.38 3.42-2.63 4.79-5.25 5.97-11.51 11.24-18.87 14.4l.54.86c-3.11 1.83-6.61 2.83-10.23 2.85 1.98-3.72 6.5-4.02 9.71-6.18 3.56-1.95 7.14-3.88 10.39-6.3z" fill="#836d16"/><path fill="#76650f" d="M109.03 66.12c.03-1.72 1.74-3.46 3.42-2.29-.98 1.04-1.85 2.18-2.69 3.33-.18-.26-.54-.78-.73-1.04z"/><path fill="#837240" opacity=".94" d="M112.45 63.83c.32.13.98.38 1.31.5-.93 1.36-1.93 2.68-3.02 3.92l-.58-.44-.4-.65c.84-1.15 1.71-2.29 2.69-3.33z"/><path d="M76.31 65.97c.3-.26.6-.51.91-.76l.56 2.51c-1.73-.49-3.77.61-3.61 2.57-.81.68-1.58 1.41-2.29 2.19-.07-.96-.15-1.91-.24-2.86 1.6-1.16 3.16-2.37 4.67-3.65zm6.27 6.42c2.25-.02 4.5-.04 6.75-.09-.06 1.41-.11 2.82-.14 4.23-1.94-1.37-4.4-1.03-6.63-1.2.01-.73.02-2.2.02-2.94z" fill="#fed336"/><path fill="#ebc428" d="M64.61 67.15l1.08-1.67c.43.65 1.28 1.94 1.7 2.59-.78 1.23-1.58 2.46-2.37 3.69-.31-.57-.93-1.72-1.24-2.3.27-.77.55-1.54.83-2.31z"/><path fill="#caaa22" d="M83.93 66.92c1.54-1.39 3.29-.94 4.97-.19-.5.69-1.49 2.07-1.98 2.76-1-.85-2-1.71-2.99-2.57z"/><path fill="#52440c" d="M96.13 65.59c2 1.1 3.89 2.38 5.72 3.75l-2.11 1.58-.69.52-.24-.5c-.88-1.79-1.81-3.55-2.68-5.35z"/><path fill="#c7a322" d="M67.39 68.07c1.48 2.34 2.81 4.78 4.56 6.93l.78.77c.68.5 2.03 1.49 2.71 1.98l-.65.05c-1.76-.36-2.11 1.66-1.13 2.68-.11 1.32-.31 2.64-.5 3.95-.98-.07-1.95-.17-2.92-.29-.55-.35-1.65-1.05-2.19-1.41-3.94.79-7.59 3.37-11.76 2.46 3.54-1.03 6.96-2.42 10.4-3.75-.18-1.36-.36-2.72-.53-4.08l2.36.41-3.5-6.01c.79-1.23 1.59-2.46 2.37-3.69z"/><path d="M74.17 70.29c-.16-1.96 1.88-3.06 3.61-2.57l1.01.64c-1.07.46-2.14.91-3.22 1.35-.35.15-1.05.44-1.4.58zm20.01-1.32l1.65-.29c1.09.64 2.08 1.39 2.98 2.26l.24.5-.54.01h-.91c-1.15-.61-2.26-1.29-3.32-2.05l-.1-.43zm-4.85 3.33c.53-.75 1.11-1.46 1.72-2.13l-.36.93c-.66 1.82-.51 3.78-.57 5.68.93.64 1.89 1.24 2.87 1.8 1.85.33 3.57-.6 5.29-1.11l.21.49c-2.05.73-4.16 1.29-6.33 1.44l-1.1-1.02-.49-.48c-.34-.34-1.03-1.03-1.38-1.37.03-1.41.08-2.82.14-4.23zm-7.18-1.5c.11.4.33 1.19.43 1.59 0 .74-.01 2.21-.02 2.94l-.16 1.09c-.25.26-.74.78-.99 1.03-.72.72-1.44 1.44-2.13 2.19l.82-1.41-3.18.27-2.13-.7.65-.05c1.98-.04 4.16-.11 5.41-1.94.67-1.59 1.03-3.3 1.3-5.01zm-4.52 11.76c.33-.6 1-1.79 1.33-2.38.57 1.15 1.14 2.31 1.7 3.47 1.59.08 3.17.16 4.76.28l.11.44c-2.08.7-4.13 1.53-6 2.7 2.08 0 4.15-.11 6.22-.29.17.46.53 1.39.7 1.86 1.85.51 3.7 1.04 5.57 1.47.29-.26.85-.79 1.14-1.06.3-.29.9-.88 1.2-1.18l1.17-1.18c.67-.59 1.36-1.15 2.07-1.69l2.99.41c.61.63 1.21 1.27 1.81 1.92-2.57-1.29-5.91-.95-7.41 1.73-1.74 1.96.84 4.16 1.58 5.91l-1.24-.38c-.65-1.29-1.26-2.59-1.84-3.9-.34.42-1.04 1.27-1.38 1.7-1.5.51-2.99 1.03-4.44 1.66-2.19-.31-4.4-.47-6.6-.6 1.33.5 2.66.99 4 1.49-1.05.45-2.07.95-3.08 1.47-1.61 1.27-1.8 3.33-2.11 5.2l-.28-.49c-.16-.36-.5-1.08-.66-1.45.77-1.57 1.64-3.09 2.51-4.61-1.51-1.26-2.98-2.55-4.43-3.87-1.26.88-2.29 2.32-3.9 2.56-2.6.21-5.19-.3-7.76-.57-.22-.86-.45-1.72-.7-2.57.68-1.57 1.61-3.02 2.75-4.31-.46 1.62-.77 3.26-.92 4.93 1.33 2.18 4.15 2.8 6.52 2.34 1.46-1.1 2.93-2.66 2.5-4.66-.6-1.24-1.45-2.33-2.23-3.46l-5.23.08 2.19-1.39c.97.12 1.94.22 2.92.29.9.67 1.8 1.35 2.71 2.02.81 1.62 1.66 3.25 3.01 4.5-.5-2.78-.98-5.57-1.25-8.39zm25.63 5.43l.67.47c-.18 2.24-.58 4.5-1.6 6.53-.2.05-.6.16-.79.22-.97.22-1.87.63-2.72 1.11-.35-.24-1.03-.72-1.37-.96l.12-.15c1.69-.4 3.33-1.03 4.88-1.83 1.5-1.4.66-3.6.81-5.39z" fill="#c4bcb6"/><path fill="#5f5b58" d="M93 68.49l.97-.4.21.88.1.43.32 1.02c1.42 1.54 2.76 3.19 2.91 5.4-2-.39-3.97-.92-5.92-1.54.36-1.1.72-2.19 1.09-3.29l-1.99.11.36-.93c.63-.59 1.28-1.15 1.95-1.68z"/><path fill="#d3bb59" d="M93.97 68.09l1.65-.15.21.74-1.65.29-.21-.88z"/><path d="M110.16 67.81l.58.44-.48 1.16c-1.11 2.45-2.68 4.64-4.17 6.87.91 1.31 1.42 3.09 2.89 3.89 1.73.2 3.48.15 5.22.17-.57-2.82-1.15-5.65-2.13-8.36 2.78 4.26 3.61 9.51 2.88 14.49 7.26 4.44 15.59 6.51 23.87 8.06l-1.38.1c-1.23-.02-2.45-.06-3.67-.12-4.56-.26-8.83-1.94-12.85-3.99-2.16-1.01-4.36-1.93-6.57-2.83l-3.05-1.27c-.97-.41-1.95-.83-2.91-1.27-1.32-.71-2.61-1.48-3.89-2.26.09-1.84-.31-3.55-1.95-4.61 1.11-1.28 2.23-2.57 3.29-3.9 1.02-1.37 2-2.76 2.92-4.2.35-.59 1.05-1.77 1.4-2.37m-1.84 13.44c-1.1 1.47 1.49 2.99 2.49 1.63 1.1-1.49-1.5-3.05-2.49-1.63m4.16 2.65c-.32 1.37.22 1.89 1.62 1.56.33-1.38-.21-1.9-1.62-1.56zm-38.08 42.22c.34-1.5.77-2.99 1.19-4.48-.07 5.16-.08 10.41-1.69 15.36-.43 1.26-.78 2.54-1.03 3.85l-1.29 2.09c-.65.79-1.34 1.55-2.04 2.29-.4-1.42.15-3.43-1.23-4.4-1.41-1.05-2.99-1.84-4.56-2.6 2.66.97 5.39 1.69 8.14 2.38 1.3-4.73 2.88-9.5 2.51-14.49z" fill="#463a0c"/><path d="M75.57 69.71c1.08-.44 2.15-.89 3.22-1.35 1.17.73 2.37 1.46 3.36 2.44-.27 1.71-.63 3.42-1.3 5.01.18-1.23.26-2.48.24-3.73-.8-1.16-2.05-1.89-3.1-2.78.78 1.22 1.61 2.41 2.31 3.67.03 1.51-1.52 2.27-2.28 3.36-.81-.93-1.67-1.83-2.37-2.84-.41-1.22-.05-2.53-.08-3.78zm-10.95 39.78c3.17 1.63 6.36 3.22 9.65 4.59v.74c-3.43-1.35-6.85-2.87-9.65-5.33z" fill="#726f66"/><path d="M71.88 72.48c.71-.78 1.48-1.51 2.29-2.19-.23 1.88-.41 3.84-1.44 5.48l-.78-.77-.07-2.52zm-10.66 80.07c1.56-.42 3.11-.84 4.66-1.25 2.51.7 5.07 1.24 7.63 1.72 3.2.64 6.46.81 9.72.95 1.27.15 2.53.37 3.78.65 2.08.54 4.2.92 6.36 1.08-1.35 1.27-2.45 3.03-4.33 3.55-2.4-.63-4.7-1.69-7.21-1.87-7.06-.62-13.86-2.77-20.61-4.83z" fill="#353436"/><path fill="#1c1512" d="M94.28 69.4c1.06.76 2.17 1.44 3.32 2.05.33 2 .48 4.01.68 6.02-1.72.51-3.44 1.44-5.29 1.11-.98-.56-1.94-1.16-2.87-1.8.06-1.9-.09-3.86.57-5.68l1.99-.11c-.37 1.1-.73 2.19-1.09 3.29 1.95.62 3.92 1.15 5.92 1.54-.15-2.21-1.49-3.86-2.91-5.4l-.32-1.02z"/><path fill="#7d6615" d="M106.09 76.28c1.49-2.23 3.06-4.42 4.17-6.87l1.81 2.57c.98 2.71 1.56 5.54 2.13 8.36-1.74-.02-3.49.03-5.22-.17-1.47-.8-1.98-2.58-2.89-3.89z"/><path fill="#9c811a" d="M99.05 71.44l.69-.52c1.41.11 2.83.26 4.24.41.62 1.01 1.24 2.03 1.86 3.05-1.06 1.33-2.18 2.62-3.29 3.9 1.64 1.06 2.04 2.77 1.95 4.61 1.28.78 2.57 1.55 3.89 2.26l-.95-.42 1.24 2.53c-.79.35-1.58.7-2.37 1.06 1.58.54 3.15 1.1 4.73 1.66.09-1.19.18-2.38.26-3.56l3.05 1.27-.72 2.69c-.98.78-1.96 1.56-2.93 2.34.65.32 1.96.96 2.62 1.28-.64 1.5-1.37 2.96-2.09 4.42-1.73-1.44-3.39-2.96-5.08-4.44.51-1.03 1.02-2.07 1.52-3.11-.29-.18-.88-.54-1.17-.73l-1.5-.98-.93-1.25-1.67-.58c-.6-.65-1.2-1.29-1.81-1.92-.35-2.57-1.01-5.09-2.1-7.45l-.21-.49c.52-1.19 1.04-2.38 1.51-3.6l.31-.77-.4-.92-.8-.32.15-.42z"/><path fill="#dcc364" d="M98.9 71.86l.8.32.4.92-.31.77-1.14-1.27.25-.74z"/><path d="M63.67 74.57l1.3-.48c.88 4.15-3.04 8.21-7.1 8.7l-1.53 1.01.05-2.29c1.58-.03 3.16-.06 4.74-.1.9-2.27 1.59-4.6 2.54-6.84zm23.29 42.07c.51.05 1.54.14 2.06.18 1.51 3.25 2.57 6.73 2.43 10.36-.23 1.49-.45 2.99-.66 4.49-1.34 3.45-2.6 7.14-1.18 10.8.65 2.73.04 5.47-.97 8.02-.55 1.37-1.09 2.75-1.63 4.13-1.25-.28-2.51-.5-3.78-.65-2.02-.29-3.96-.92-5.84-1.67 2.79-.27 5.59-.38 8.4-.51-1.2-.5-2.39-.99-3.58-1.48 1.24-.07 2.49-.14 3.73-.2l.39-2.71c1.41-9.78 1.84-19.79.77-29.62l-.14-1.14z" fill="#bea020"/><path fill="#777174" d="M83.41 75.86c2.39.67 4.78 1.34 7.16 2.04l.49.48c1.39 3.05 2.49 6.24 3.3 9.49-.3.3-.9.89-1.2 1.18-.5-2.3-1.69-4.34-2.96-6.3-1.65.16-3.29.32-4.94.47-.39-1.89-.74-3.79-1.32-5.63l-.53-1.73z"/><path fill="#edcd46" d="M73.66 80.48c-.98-1.02-.63-3.04 1.13-2.68l2.13.7c-.98.85-2.06 1.51-3.26 1.98z"/><path d="M79.28 79.64c.69-.75 1.41-1.47 2.13-2.19.63.04 1.9.11 2.53.14.58 1.84.93 3.74 1.32 5.63l.16.71c-1.59-.12-3.17-.2-4.76-.28-.56-1.16-1.13-2.32-1.7-3.47l.32-.54zm-10.19 7.6c1.85.08 3.7.18 5.55.4-.1 1.74-1.02 3.06-2.36 4.08-.64-.42-1.93-1.27-2.58-1.7-.21-.92-.41-1.85-.61-2.78z" fill="#989291"/><path d="M73.66 80.48c1.2-.47 2.28-1.13 3.26-1.98l3.18-.27-.82 1.41-.32.54c-.33.59-1 1.78-1.33 2.38-.61 1.29-1.18 2.6-1.76 3.89-.91-.67-1.81-1.35-2.71-2.02.19-1.31.39-2.63.5-3.95zm-12.77 25.08c2.21-1.2 3.01 1.76 3.05 3.39-1.25-.9-2.36-2-3.05-3.39z" fill="#a18f34"/><path fill="#5b5843" d="M91.06 78.38l1.1 1.02.9.24c.89 2.33 1.75 4.66 2.47 7.05l-1.17 1.18c-.81-3.25-1.91-6.44-3.3-9.49z"/><path fill="#968724" d="M93.06 79.64c1.45.36 2.91.7 4.37 1.04l.17 4.32c-.71.54-1.4 1.1-2.07 1.69-.72-2.39-1.58-4.72-2.47-7.05z"/><path fill="#af941e" d="M149.21 79.75c.38 2.76.96 5.53 2.33 7.99-.02 3.63-.62 7.21-1 10.8-1.22.55-2.45 1.1-3.69 1.59-1.32-.33-2.62-.7-3.92-1.07.16-.52.49-1.57.66-2.09-3.51-.59-7.1-.27-10.58-.99l.76-1.47c1.22.06 2.44.1 3.67.12 2.62.21 5.23.5 7.84.85 2.04.34 3.06-1.88 3.25-3.56.44-4.04.54-8.11.68-12.17z"/><path fill="#140e03" d="M108.32 81.25c.99-1.42 3.59.14 2.49 1.63-1 1.36-3.59-.16-2.49-1.63z"/><path fill="#887519" d="M56.29 85.19c4.17.91 7.82-1.67 11.76-2.46.54.36 1.64 1.06 2.19 1.41l-2.19 1.39-.64.77c-1.14 1.29-2.07 2.74-2.75 4.31-.33-.57-.98-1.69-1.3-2.26-1.05.34-2.1.68-3.14 1.02 1.2.4 2.39.82 3.58 1.26-2.21.18-4.41.39-6.61.62-.08.74-.24 2.21-.31 2.95-.25-.7-.74-2.1-.98-2.8-1.99.37-3.98.76-5.98 1.03l-.99-.02c-.62-.27-1.87-.81-2.5-1.08 1.77-1.55 3.44-3.21 5.03-4.94 1.52-.69 3.18-.98 4.83-1.2z"/><path fill="#7b7262" d="M75.87 86.45c.58-1.29 1.15-2.6 1.76-3.89.27 2.82.75 5.61 1.25 8.39-1.35-1.25-2.2-2.88-3.01-4.5z"/><path fill="#b1a6aa" d="M85.26 83.22c1.65-.15 3.29-.31 4.94-.47 1.27 1.96 2.46 4 2.96 6.3-.29.27-.85.8-1.14 1.06-1.87-.43-3.72-.96-5.57-1.47-.17-.47-.53-1.4-.7-1.86-2.07.18-4.14.29-6.22.29 1.87-1.17 3.92-2 6-2.7l-.11-.44-.16-.71m3.19.88c-.44 1.39.03 1.91 1.42 1.57.45-1.4-.02-1.92-1.42-1.57z"/><path fill="#888180" d="M88.45 84.1c1.4-.35 1.87.17 1.42 1.57-1.39.34-1.86-.18-1.42-1.57z"/><path fill="#9d7d15" d="M112.48 83.9c1.41-.34 1.95.18 1.62 1.56-1.4.33-1.94-.19-1.62-1.56z"/><path d="M60.22 89.37c1.04-.34 2.09-.68 3.14-1.02.32.57.97 1.69 1.3 2.26.25.85.48 1.71.7 2.57-2.66 2.12-5.43 4.13-8.49 5.63-3.37.75-6.69 1.74-9.98 2.79-3.38.99-6.82 1.78-10.32 2.22 7.17-2.13 14.15-4.8 21.01-7.77 2.54-1.07 5.93-2.18 6.22-5.42-1.19-.44-2.38-.86-3.58-1.26zm74.85 30.29c.29-.17.87-.51 1.15-.68-2 3.34-3.72 6.93-6.43 9.76-5.15 4.85-10.63 9.54-17.17 12.42-5.04 2.11-10.25 3.99-15.67 4.81-1.53.36-2.67-1.03-3.95-1.62-.25-4.3-1.07-8.53-2.21-12.68.21-1.5.43-3 .66-4.49.4-1.13.86-2.24 1.28-3.37-.31 5.98-.1 11.95.79 17.87 5.41-1.04 10.7-2.6 15.82-4.59-3.21 2.16-7.73 2.46-9.71 6.18 3.62-.02 7.12-1.02 10.23-2.85 5.68-2.96 11.45-5.99 16.1-10.47 3.46-3.04 6.19-6.76 9.11-10.29z" fill="#52420d"/><path fill="#79746c" d="M97.14 88.18c1.08-1.87 3.22.16 4.64.44l-.6 3.54c-1.2.19-2.42.22-3.64.29-.7-1.29-2.32-3.11-.4-4.27z"/><path fill="#796715" d="M114.35 87.69c2.21.9 4.41 1.82 6.57 2.83l-.54.91c1.27.8 2.54 1.6 3.81 2.39-1.39-.14-2.77-.29-4.15-.44-.26.44-.79 1.31-1.05 1.74-1.71-.84-3.36-1.78-5.01-2.72-.17.4-.5 1.2-.66 1.6-.66-.32-1.97-.96-2.62-1.28.97-.78 1.95-1.56 2.93-2.34l.72-2.69z"/><path fill="#bc9c1c" d="M57.19 91.25c2.2-.23 4.4-.44 6.61-.62-.29 3.24-3.68 4.35-6.22 5.42-.18-.46-.53-1.39-.7-1.85.07-.74.23-2.21.31-2.95z"/><path fill="#ab8e27" d="M92.11 92.39c.34-.43 1.04-1.28 1.38-1.7.58 1.31 1.19 2.61 1.84 3.9-1.64 1.61-3.29 3.21-4.87 4.88-.2.57-.59 1.7-.79 2.26l-.26.77c-.17-1.42-.33-2.83-.49-4.25l-.05-.59c-.05-1.1-.38-2.1-.99-3 1.93 1.35 3.76-.41 4.23-2.27z"/><path fill="#957d1a" d="M120.38 91.43l.54-.91c4.02 2.05 8.29 3.73 12.85 3.99l-.76 1.47c3.48.72 7.07.4 10.58.99-.17.52-.5 1.57-.66 2.09 1.3.37 2.6.74 3.92 1.07l2.16.58c.69.83 1.37 1.68 2.03 2.53-.13.97-.29 1.93-.48 2.88-.49-.15-1.47-.46-1.95-.62-1.34-.45-2.67-.92-4-1.38l-1.76-.62-2.68-1.05c-3.52-1.8-7.14-3.51-11.06-4.21-3.48-.63-6.92-1.59-10.12-3.12.26-.43.79-1.3 1.05-1.74 1.38.15 2.76.3 4.15.44-1.27-.79-2.54-1.59-3.81-2.39z"/><path fill="#857219" d="M73.12 93.75c1.61-.24 2.64-1.68 3.9-2.56 1.45 1.32 2.92 2.61 4.43 3.87-.87 1.52-1.74 3.04-2.51 4.61-2.32-1.48-4.59-3.04-6.99-4.37-1.21.52-2.34 1.22-3.5 1.86-1.33.56-2.67 1.11-4.02 1.62l.63 1.9c-.64.29-1.91.87-2.55 1.17-1.45.21-2.91.37-4.38.46l-1.7-.96 2.41-2.27c-.49-.06-1.47-.2-1.97-.27 3.06-1.5 5.83-3.51 8.49-5.63 2.57.27 5.16.78 7.76.57z"/><path fill="#d5b94b" d="M87.67 94.05c1.45-.63 2.94-1.15 4.44-1.66-.47 1.86-2.3 3.62-4.23 2.27l-.21-.61z"/><path fill="#78726d" d="M81.07 93.45c2.2.13 4.41.29 6.6.6l.21.61c-.44.04-1.31.13-1.75.18-.58 1.53 1.78 2.11 2.74 2.82l.05.59c-1.05 1.56-1.88 3.63-3.84 4.24-1.96-.09-2.75-1.91-3.69-3.3l1.65-2.19-1.05-.59c1.01-.52 2.03-1.02 3.08-1.47-1.34-.5-2.67-.99-4-1.49z"/><path fill="#ddb524" d="M68.45 97.16c1.16-.64 2.29-1.34 3.5-1.86 2.4 1.33 4.67 2.89 6.99 4.37l.66 1.45c-2-.8-4.05-1.54-6.22-1.71.12-.35.37-1.06.5-1.41-2.09.87-4.15 1.81-6.19 2.79 1.8 1.21 3.59 2.44 5.31 3.77.41 1.11.77 2.23 1.14 3.35l-.16 1.85.19 2.58c-2.74-1.37-5.64-2.51-8.02-4.48-2.44-1.88-4.22-4.85-7.53-5.28l-.49-.27c1.47-.09 2.93-.25 4.38-.46l2.55-.28 1.46 1.45c.69-.44 1.37-.89 2.05-1.36-.79-.17-2.37-.5-3.16-.66 1.53-1.15 3.13-2.2 4.72-3.26-.42-.15-1.26-.44-1.68-.58z"/><path fill="#bbaa6a" d="M86.13 94.84c.44-.05 1.31-.14 1.75-.18.61.9.94 1.9.99 3-.96-.71-3.32-1.29-2.74-2.82z"/><path fill="#8b7618" d="M98.82 96.32c.85-.48 1.75-.89 2.72-1.11.19-.06.59-.17.79-.22.62-.06 1.85-.16 2.47-.21 2.27.82 3.99 2.5 5.08 4.63 1.53.79 3.07 1.55 4.65 2.24l-1.16 2.84c-1.99-.27-3.97-.53-5.95-.76l.51 1.32c-.24-.09-.73-.25-.97-.33-1.99-.69-3.94-1.46-5.88-2.29l-1.12-1.37 2.05.2 3.2.79c1.04-.62 2.04-1.3 3-2.04l-3.22-1.37-2.12 1.84c-1.23-.55-2.44-1.11-3.65-1.7-.1-.27-.32-.83-.43-1.1l-.08-.69.11-.67z"/><path fill="#cda922" d="M89.67 101.73c3.11-1.44 5.53-3.84 7.78-6.37.34.24 1.02.72 1.37.96l-.11.67c-1.21-.25-3.33.12-2.47 1.86 1.05.11 1.9-.28 2.55-1.17.11.27.33.83.43 1.1 1.21.59 2.42 1.15 3.65 1.7l-.86.78-2.05-.2c-.94-.39-1.9-.74-2.87-1.04-1.14.91-2.17 1.95-3.22 2.96l.39 2.86-.9 1.3c-.09-1.75-.15-3.5-.21-5.25-1.26.43-2.53.85-3.8 1.27l.06-.66.26-.77z"/><path fill="#f9d333" d="M96.24 98.85c-.86-1.74 1.26-2.11 2.47-1.86l.08.69c-.65.89-1.5 1.28-2.55 1.17z"/><path fill="#33312f" d="M156.47 97.04c1.78.35 3.55.78 5.3 1.26-.44 8.03-3.49 15.82-7.54 22.7.05.35.17 1.05.23 1.41-2.08.57-3.43 2.01-3.99 4.08l-3.25.21c.22-1.12.44-2.23.67-3.34l-1.87.19c1-2.16 2.12-4.27 3.19-6.39 1.44-2.63 1.34-5.74 2.48-8.48 1.6-3.87 3.67-7.57 4.78-11.64z"/><path fill="#655310" d="M73.88 98c-.13.35-.38 1.06-.5 1.41l-.47 1.27c1.45.68 3.11 1.4 2.17 3.29-.52.15-1.56.45-2.08.59-1.72-1.33-3.51-2.56-5.31-3.77 2.04-.98 4.1-1.92 6.19-2.79z"/><path fill="#4a390b" d="M26.26 99.31c1.45-.98 2.46 1.37 3.68 1.85.34 1.15.7 2.29 1.07 3.43 1.44-.13 2.87-.27 4.31-.42-2.69.93-5.47 1.53-8.3 1.78-.23-2.18-1.5-4.48-.76-6.64z"/><path fill="#a2891a" d="M46.89 101.6c3.29-1.05 6.61-2.04 9.98-2.79.5.07 1.48.21 1.97.27l-2.41 2.27 1.7.96.49.27.59.74c-4.51.96-8.95 2.21-13.48 3.08-.55-.16-1.67-.5-2.23-.66 1.69-.98 3.39-1.91 5.11-2.83l-1.72-1.31z"/><path fill="#a68c1c" d="M73.38 99.41c2.17.17 4.22.91 6.22 1.71l.28.49c-.07.36-.2 1.09-.26 1.46-1.27-.36-2.54-.71-3.8-1.06l-.12 3.14c1.12.25 2.24.51 3.37.76l.41-2.06c.23.39.68 1.17.9 1.56l.79.27c1.28.4 2.59.68 3.91.91l-3.75.58c-1.58.6-3.13 1.28-4.7 1.9-.17 1.84-.31 3.69-.4 5.53 2.01 2.09 3.24 4.72 3.56 7.61-.02.71-.08 2.12-.11 2.83-1.36-1.13-2.72-2.27-4.09-3.4-.42 1.49-.85 2.98-1.19 4.48-.03-3.77-.23-7.53-.13-11.3v-.74l-.1-1.74-.19-2.58.79-.01.46-.7c-.27-.28-.82-.85-1.09-1.14-.37-1.12-.73-2.24-1.14-3.35.52-.14 1.56-.44 2.08-.59.94-1.89-.72-2.61-2.17-3.29l.47-1.27z"/><path fill="#e8c328" d="M102.87 100.48l2.12-1.84 3.22 1.37c-.96.74-1.96 1.42-3 2.04l-3.2-.79.86-.78z"/><path fill="#514d4c" d="M160.68 114.35c2.33-4.59 3.36-10.04 7.31-13.63-.28 4.22-1.13 8.37-1.85 12.53-.35.98-.73 1.95-1.11 2.92-1.49-.46-3.37-.39-4.35-1.82z"/><path fill="#f2ca2a" d="M75.82 102.01c1.26.35 2.53.7 3.8 1.06l-.14.78-.41 2.06c-1.13-.25-2.25-.51-3.37-.76l.12-3.14z"/><path fill="#f2c728" d="M89.35 103.16c1.27-.42 2.54-.84 3.8-1.27.06 1.75.12 3.5.21 5.25l.9-1.3.28 1.8-1.63.59c-1.48.3-2.55 1.32-3.57 2.35.14-1.42.27-2.83.4-4.24l-2.52.16-2.14.09c-1.32-.23-2.63-.51-3.91-.91-.28-.66-.82-1.99-1.09-2.66 1.09.53 2.17 1.08 3.23 1.67 1.81-.26 3.53-.86 5.24-1.5l.28 3.22c.25-1.07.42-2.16.52-3.25z"/><path fill="#a88d1d" d="M114.53 101.65c8.79 3.4 17.69 6.59 26.76 9.17.38-1.08.79-2.15 1.21-3.21.07.88.22 2.64.3 3.52l3.42.36c.77-2.01 1.53-4.02 2.39-5.99.48.16 1.46.47 1.95.62-2.07 7.16-5.59 13.91-10.26 19.72.21-4 2.51-7.35 4.19-10.85-4.26-.97-8.47-2.12-12.66-3.32l-1.94 1.72c-.96-.49-1.92-.98-2.87-1.47-6.24-2.62-12.59-4.97-19.09-6.87l-.51-1.32c1.98.23 3.96.49 5.95.76l1.16-2.84z"/><path fill="#d9b221" d="M95.91 105.13c1.72-.91 3.44-1.82 5.17-2.7 1.94.83 3.89 1.6 5.88 2.29-2.82 3.03-6.11 5.7-9.96 7.29-.79.17-2.36.49-3.15.65.61-1.95 1.62-3.72 3.11-5.12-.35-.81-.7-1.61-1.05-2.41z"/><path fill="#bc9d1f" d="M140.17 102.45l2.68 1.05c-.6 2.02-.91 4.21-2.18 5.96l-1.55-.57c-.84-1.19-.86-2.46-.08-3.82.28-.66.85-1.97 1.13-2.62z"/><path d="M144.61 104.12c1.33.46 2.66.93 4 1.38-.86 1.97-1.62 3.98-2.39 5.99l-3.42-.36c-.08-.88-.23-2.64-.3-3.52.5-1.28 1.34-2.37 2.11-3.49zm-13.05 15.23c1.17.04 2.34.15 3.51.31-2.92 3.53-5.65 7.25-9.11 10.29-4.65 4.48-10.42 7.51-16.1 10.47l-.54-.86c7.36-3.16 13.62-8.43 18.87-14.4 1.25-1.37 1.93-3.11 2.63-4.79.18-.26.55-.77.74-1.02z" fill="#cfae23"/><path fill="#dbb725" d="M22.97 107.56c6.85 2.26 13.63-2.45 20.53-1.82.56.16 1.68.5 2.23.66-1.42.46-2.9.77-4.33 1.22l-1.35.41c-2.14.89-4.2 1.97-6.25 3.07-.56.31-1.11.64-1.66.98-.81 1.82-1.4 3.73-1.84 5.68 1.43 2.95 3.26 5.68 5.17 8.34-1.13.78-2.26 1.56-3.39 2.35-2.99-4.02-5.71-8.25-7.94-12.74-1.25-2.53-2.31-5.15-3.22-7.82l2.05-.33z"/><path fill="#806c17" d="M76.63 109.07c1.57-.62 3.12-1.3 4.7-1.9.43.94.85 1.86 1.28 2.79-.36 1.26-.68 2.53-1.08 3.78l-.89.83c-.47 2.52-.71 5.08-.85 7.64-.32-2.89-1.55-5.52-3.56-7.61.09-1.84.23-3.69.4-5.53z"/><path fill="#605010" d="M81.33 107.17l3.75-.58 2.14-.09c-.18.56-.55 1.69-.73 2.26-1.48-.02-4.26-2.25-3.88 1.2-.43-.93-.85-1.85-1.28-2.79z"/><path fill="#877318" d="M87.22 106.5l2.52-.16c-.13 1.41-.26 2.82-.4 4.24 1.02-1.03 2.09-2.05 3.57-2.35.18 1.77.32 3.54.42 5.32.05 3.43-.28 6.85-.6 10.26-.42 1.13-.88 2.24-1.28 3.37.14-3.63-.92-7.11-2.43-10.36.03-1.49-.7-2.18-2.2-2.08l-.82-.61c.09-1.8.24-3.59.49-5.37.18-.57.55-1.7.73-2.26z"/><path d="M33.8 111.1c2.05-1.1 4.11-2.18 6.25-3.07l1.35-.41c-2.25 1.31-4.46 2.69-6.67 4.07.77 1.44 1.54 2.89 2.34 4.32-1.11-1.63-2.21-3.26-3.27-4.91zm-16.67 4.91l.55-2.43c1.9 3.76 3.51 7.78 6.5 10.84-.58-1.84-1.22-3.67-1.98-5.44l1.94-3.27c2.23 4.49 4.95 8.72 7.94 12.74l1.19 1.56c-2.65-.48-4.61-2.37-6.53-4.1 1.14 1.99 2.25 3.99 3.34 6.01-1.89.3-3.78.76-5.7.73-.87-.76-1.54-1.7-2.23-2.62.16-1.34.69-2.79.03-4.09-1.35-3.47-3.41-6.6-5.05-9.93z" fill="#262521"/><path fill="#6f5a13" d="M74.14 107.91c.27.29.82.86 1.09 1.14l-.46.7-.79.01.16-1.85z"/><path fill="#c8a420" d="M82.61 109.96c-.38-3.45 2.4-1.22 3.88-1.2-.25 1.78-.4 3.57-.49 5.37-1.49-.16-2.98-.29-4.47-.39.4-1.25.72-2.52 1.08-3.78z"/><path fill="#3f3d38" d="M12.34 113.65c-.4-1.81-.34-3.65.23-5.42 1.45 1.77 2.86 3.58 4.3 5.36l.26-1.92.55 1.91-.55 2.43c1.64 3.33 3.7 6.46 5.05 9.93.66 1.3.13 2.75-.03 4.09-1.9-2.81-3.51-6.16-6.88-7.45.11-.68.23-1.36.35-2.04-.69-.06-2.05-.19-2.73-.26-1.31-2.15-2.56-4.35-3.81-6.54l3.26-.09z"/><path fill="#4d4b47" d="M17.13 111.67c.16-1.2.36-2.38.6-3.56 1.19 3.74 2.86 7.3 4.47 10.87.76 1.77 1.4 3.6 1.98 5.44-2.99-3.06-4.6-7.08-6.5-10.84l-.55-1.91z"/><path fill="#8c7418" d="M32.14 112.08c.55-.34 1.1-.67 1.66-.98 1.06 1.65 2.16 3.28 3.27 4.91 2.24 3.46 4.77 6.75 7.63 9.73.33 1.36.34 2.96 1.49 3.97 3.41 3.69 7.85 6.15 11.81 9.17-4.64-1.56-8.92-4.08-12.49-7.43-3.61-3.39-7.67-6.76-9.35-11.58-.96-2.78-2.15-5.49-4.02-7.79z"/><path fill="#705d13" d="M30.3 117.76c.44-1.95 1.03-3.86 1.84-5.68 1.87 2.3 3.06 5.01 4.02 7.79 1.68 4.82 5.74 8.19 9.35 11.58 3.57 3.35 7.85 5.87 12.49 7.43-3.96-3.02-8.4-5.48-11.81-9.17-1.15-1.01-1.16-2.61-1.49-3.97 5.5 5.31 11.95 9.64 19.05 12.49 1.57.76 3.15 1.55 4.56 2.6 1.38.97.83 2.98 1.23 4.4-1.08.44-2.11 1.67-3.39 1.25-9.46-2.5-18.89-6.89-25.1-14.71-.57-.77-.43-1.79-.64-2.67-2.19-3.61-4.73-7.01-7.03-10.55-.77-.2-2.31-.6-3.08-.79z"/><path fill="#383220" opacity=".53" d="M80.64 114.57l.89-.83c1.49.1 2.98.23 4.47.39l.82.61.14 1.9.14 1.14c.02 3.78-.15 7.57-.18 11.36-.26-4.7-.86-9.38-1.02-14.09-1.63-.15-3.25-.32-4.88-.5.13 4.2-.3 8.38-.76 12.54-.27 4.78-.36 9.58-1.12 14.32-.1-2.9-.29-5.8-.26-8.7.38-2.54.67-5.1.8-7.67.03-.71.09-2.12.11-2.83.14-2.56.38-5.12.85-7.64z"/><path fill="#373433" d="M157.88 123.56c.4-3.21 1.37-6.31 2.8-9.21.98 1.43 2.86 1.36 4.35 1.82-.86 2.12-1.76 4.23-2.75 6.29l-4.4 1.1z"/><path fill="#e1bb25" d="M86.82 114.74c1.5-.1 2.23.59 2.2 2.08-.52-.04-1.55-.13-2.06-.18l-.14-1.9z"/><path fill="#9d831b" d="M133.84 114.97c1.14.62 2.23 1.32 3.33 2.03-.74 3.77-.03 8.21-2.88 11.25-3.39 3.97-6.37 8.35-10.37 11.77-8.04 5.55-17.2 9.96-26.97 11.12-3.7-1.12-4.55-5.12-5.72-8.28l-1.62-.39c-1.42-3.66-.16-7.35 1.18-10.8 1.14 4.15 1.96 8.38 2.21 12.68.56 1.3 1.19 2.57 1.82 3.85 7.48.06 14.55-2.71 21.25-5.78l-3.45-1.26c6.54-2.88 12.02-7.57 17.17-12.42 2.71-2.83 4.43-6.42 6.43-9.76-.28.17-.86.51-1.15.68-1.17-.16-2.34-.27-3.51-.31.95-1.36 1.75-2.81 2.28-4.38z"/><path fill="#937a19" d="M30.3 117.76c.77.19 2.31.59 3.08.79 2.3 3.54 4.84 6.94 7.03 10.55.21.88.07 1.9.64 2.67 6.21 7.82 15.64 12.21 25.1 14.71 1.28.42 2.31-.81 3.39-1.25.7-.74 1.39-1.5 2.04-2.29l.72 3.21c-1.06 1.12-2.15 2.21-3.26 3.29-1.08.04-2.15.03-3.22-.02-9.66-3.04-18.93-7.99-25.69-15.66-1.89-2.34-2.92-5.22-4.66-7.66-1.91-2.66-3.74-5.39-5.17-8.34z"/><path fill="#58430d" d="M87.1 117.78c1.07 9.83.64 19.84-.77 29.62-2.46.09-4.93.17-7.39.28.05-1.71.1-3.42.16-5.13 2.49.09 4.99.03 7.47-.25.2-4.39.38-8.77.35-13.16.03-3.79.2-7.58.18-11.36z"/><path fill="#ba981e" d="M75.59 121.64c1.37 1.13 2.73 2.27 4.09 3.4-.13 2.57-.42 5.13-.8 7.67-1.42 5.32-.25 10.81-.87 16.19-.93 1.83-3.04 2.73-4.5 4.12-2.56-.48-5.12-1.02-7.63-1.72-.97-.3-1.93-.6-2.89-.92l2.83-.96c1.07.05 2.14.06 3.22.02 1.97.37 3.95.68 5.94.95-.16-2.17-.34-4.34-.52-6.5-.72.75-1.44 1.5-2.16 2.26l-.72-3.21 1.29-2.09c2.63.77 3.22-2.91 1.03-3.85 1.61-4.95 1.62-10.2 1.69-15.36z"/><path fill="#ceac23" d="M35.47 126.1c1.74 2.44 2.77 5.32 4.66 7.66 6.76 7.67 16.03 12.62 25.69 15.66l-2.83.96c-3.67-1.17-7.14-2.9-10.58-4.61-7.32-4.01-13.57-9.61-19.14-15.76l-1.19-1.56c1.13-.79 2.26-1.57 3.39-2.35z"/><path fill="#030303" d="M13.98 131.93c3.46.27 5.51 3.43 8.74 4.25 1.47.54 3.02.91 4.4 1.68 5.69 4.24 9.38 10.94 15.93 14.04 3.71 1.91 7.02 4.5 10.85 6.17 4.36 1.97 8.31 4.86 13.01 6.03 9.1 2.79 18.72 1.85 28.09 1.77 5.63-.25 11.42.62 16.9-1.1 1.87-.62 3.85-.46 5.78-.31-10.04 4.38-20.99 6.27-31.9 6.54h-1.5c-5.83-.33-11.68-.74-17.37-2.12-21.55-4.8-40.99-18.38-52.93-36.95z"/><path fill="#a48317" d="M78.01 148.9c.62-5.38-.55-10.87.87-16.19-.03 2.9.16 5.8.26 8.7l-.04 1.14c-.06 1.71-.11 3.42-.16 5.13 2.46-.11 4.93-.19 7.39-.28l-.39 2.71c-1.24.06-2.49.13-3.73.2 1.19.49 2.38.98 3.58 1.48-2.81.13-5.61.24-8.4.51 1.88.75 3.82 1.38 5.84 1.67-3.26-.14-6.52-.31-9.72-.95 1.46-1.39 3.57-2.29 4.5-4.12z"/><path fill="#e6c124" d="M73.9 137c2.19.94 1.6 4.62-1.03 3.85.25-1.31.6-2.59 1.03-3.85z"/><path fill="#8a7117" d="M96.95 145.97c5.42-.82 10.63-2.7 15.67-4.81l3.45 1.26c-6.7 3.07-13.77 5.84-21.25 5.78-.63-1.28-1.26-2.55-1.82-3.85 1.28.59 2.42 1.98 3.95 1.62z"/></svg>