<?xml version="1.0" encoding="UTF-8" ?>
<!DOCTYPE svg PUBLIC "-//W3C//DTD SVG 1.1//EN" "http://www.w3.org/Graphics/SVG/1.1/DTD/svg11.dtd">
<svg width="640pt" height="640pt" viewBox="0 0 640 640" version="1.1" xmlns="http://www.w3.org/2000/svg">
<g id="#f58929fe">
<path fill="#f58929" opacity="1.00" d=" M 108.45 62.07 C 111.68 53.86 120.08 47.86 128.98 48.01 C 150.34 48.00 171.71 47.98 193.08 48.02 C 199.00 48.01 205.14 50.45 208.58 55.44 C 213.48 62.55 213.84 71.68 213.05 80.00 C 234.37 80.01 255.69 79.98 277.01 80.02 C 290.09 79.87 301.35 92.01 300.99 104.93 C 301.00 155.30 301.01 205.66 300.99 256.03 C 301.16 265.56 294.94 274.72 286.11 278.23 C 281.33 280.35 276.01 280.00 270.92 280.00 C 195.61 279.99 120.30 280.02 45.00 279.99 C 32.54 280.35 21.17 269.46 21.04 257.00 C 20.94 207.34 21.04 157.68 20.99 108.01 C 20.75 101.04 21.64 93.64 25.79 87.81 C 29.15 82.86 35.03 79.88 41.00 80.02 C 62.92 80.22 84.84 80.51 106.76 80.75 C 106.97 74.52 105.95 67.98 108.45 62.07 M 118.83 60.68 C 116.29 66.76 116.58 73.55 116.96 80.00 C 146.32 80.00 175.68 80.00 205.04 80.00 C 205.41 73.61 205.66 66.90 203.09 60.90 C 201.93 58.13 199.28 55.78 196.13 56.01 C 172.73 55.98 149.33 56.01 125.93 56.00 C 122.76 55.64 119.95 57.83 118.83 60.68 M 29.09 102.89 C 28.88 121.92 29.06 140.96 29.00 160.00 C 35.67 160.00 42.33 160.00 49.00 160.00 C 49.34 153.46 47.98 146.57 50.53 140.33 C 53.48 133.04 61.05 127.93 68.94 128.02 C 75.98 128.01 83.03 127.92 90.07 128.06 C 99.34 128.34 107.67 135.98 108.79 145.18 C 109.24 150.11 108.90 155.06 109.00 160.00 C 143.67 160.00 178.33 160.00 213.00 160.00 C 213.07 155.33 212.83 150.64 213.13 145.98 C 213.76 138.49 219.10 131.73 226.15 129.22 C 230.55 127.54 235.36 128.08 239.97 128.00 C 245.01 128.09 250.07 127.81 255.10 128.14 C 264.23 128.90 272.12 136.78 272.86 145.92 C 273.17 150.61 272.93 155.31 273.00 160.00 C 279.67 160.00 286.33 160.00 293.00 160.00 C 293.01 141.99 292.98 123.98 293.02 105.97 C 293.48 99.17 288.37 93.50 283.03 90.02 C 279.19 87.30 274.35 88.09 269.94 88.00 C 193.95 88.00 117.96 88.00 41.96 88.00 C 34.33 87.91 29.84 96.21 29.09 102.89 M 63.70 136.73 C 62.42 137.77 61.13 138.80 59.82 139.80 C 59.16 140.78 58.50 141.76 57.84 142.74 C 57.50 143.73 57.14 144.72 56.77 145.69 C 56.71 157.90 56.71 170.10 56.77 182.30 C 57.14 183.28 57.50 184.26 57.84 185.26 C 58.49 186.24 59.16 187.22 59.82 188.20 C 61.13 189.20 62.42 190.22 63.69 191.26 C 65.43 191.76 67.18 192.34 69.02 192.28 C 76.44 192.25 83.87 192.32 91.30 192.22 C 92.29 191.86 93.28 191.53 94.29 191.21 C 95.59 190.22 96.88 189.20 98.18 188.20 C 98.84 187.22 99.50 186.24 100.16 185.26 C 100.50 184.27 100.85 183.28 101.23 182.30 C 101.32 170.84 101.24 159.38 101.27 147.92 C 101.35 146.12 100.76 144.41 100.22 142.73 C 99.52 141.76 98.83 140.79 98.17 139.80 C 93.26 134.31 85.50 135.93 78.98 135.73 C 73.89 135.99 68.61 134.98 63.70 136.73 M 227.70 136.80 C 226.40 137.79 225.11 138.79 223.82 139.80 C 223.16 140.78 222.49 141.76 221.83 142.75 C 221.50 143.74 221.14 144.72 220.77 145.70 C 220.68 157.13 220.76 168.57 220.72 180.01 C 220.64 181.83 221.23 183.57 221.78 185.28 C 222.47 186.24 223.16 187.21 223.83 188.20 C 225.11 189.20 226.40 190.21 227.70 191.20 C 228.70 191.52 229.70 191.86 230.70 192.22 C 238.90 192.30 247.10 192.30 255.30 192.22 C 256.29 191.86 257.29 191.52 258.29 191.21 C 259.59 190.21 260.88 189.21 262.17 188.20 C 262.83 187.21 263.52 186.24 264.22 185.27 C 264.76 183.58 265.35 181.86 265.28 180.05 C 265.27 171.36 265.27 162.67 265.26 153.98 C 265.23 150.21 265.69 146.30 264.22 142.72 C 263.52 141.76 262.83 140.79 262.17 139.80 C 259.69 137.49 256.61 135.64 253.10 135.76 C 245.64 135.71 238.17 135.70 230.70 135.78 C 229.71 136.14 228.71 136.48 227.70 136.80 M 29.00 168.00 C 28.99 196.67 29.02 225.34 28.99 254.02 C 28.90 259.71 31.02 265.80 35.73 269.26 C 38.66 271.46 42.43 272.05 46.01 272.01 C 123.01 271.98 200.01 272.01 277.00 272.00 C 280.98 272.02 285.14 270.97 288.11 268.18 C 291.68 264.86 293.09 259.82 293.01 255.06 C 292.99 226.04 293.00 197.02 293.00 168.00 C 286.33 168.00 279.67 168.00 273.00 168.00 C 272.65 174.75 274.11 181.95 271.18 188.31 C 268.07 195.31 260.65 200.09 252.98 199.99 C 245.96 199.98 238.94 200.08 231.93 199.94 C 222.77 199.67 214.53 192.21 213.27 183.16 C 212.71 178.13 213.12 173.05 213.00 168.00 C 178.33 168.00 143.67 168.00 109.00 168.00 C 108.88 173.05 109.29 178.13 108.73 183.16 C 107.48 192.21 99.23 199.66 90.08 199.94 C 82.71 200.05 75.34 200.04 67.98 199.94 C 58.82 199.69 50.56 192.25 49.28 183.20 C 48.71 178.15 49.12 173.06 49.00 168.00 C 42.33 168.00 35.67 168.00 29.00 168.00 Z" />
<path fill="#f58929" opacity="1.00" d=" M 451.15 51.09 C 460.45 48.08 470.44 47.93 480.11 48.57 C 484.38 49.24 488.79 49.49 492.85 51.09 C 495.66 51.62 498.25 52.86 500.79 54.14 C 507.92 57.66 513.93 63.68 516.95 71.09 C 517.28 72.12 517.61 73.14 517.96 74.17 C 521.20 82.88 519.14 92.42 519.75 101.50 C 520.63 102.75 521.73 103.96 521.83 105.57 L 522.65 105.54 C 524.24 110.89 523.64 116.48 523.74 121.98 C 523.61 125.61 524.15 129.38 522.97 132.89 C 521.60 136.71 518.81 140.81 514.67 141.78 C 513.86 144.18 512.98 146.57 511.86 148.85 C 508.99 156.37 504.52 163.16 499.69 169.56 C 499.77 174.78 499.72 180.00 499.73 185.23 C 500.95 188.17 502.50 191.28 505.59 192.63 C 518.44 199.08 531.31 205.49 544.17 211.93 C 549.72 214.71 554.54 218.92 557.89 224.16 C 564.73 233.75 563.98 245.98 563.61 257.15 C 563.52 258.39 562.93 259.51 562.51 260.66 C 560.81 262.60 559.04 264.51 556.85 265.90 C 554.94 267.06 553.01 268.24 550.86 268.89 C 536.37 274.88 520.54 276.51 505.09 278.24 C 483.09 280.23 460.88 280.26 438.88 278.24 C 423.43 276.54 407.62 274.86 393.14 268.88 C 390.98 268.23 389.05 267.07 387.15 265.90 C 384.94 264.53 383.19 262.59 381.50 260.66 C 379.75 257.36 380.35 253.54 380.26 249.96 C 380.33 244.01 379.78 237.81 382.05 232.16 C 382.38 231.14 382.72 230.13 383.05 229.11 C 384.96 224.41 388.04 220.27 391.76 216.85 C 396.08 212.48 401.84 210.07 407.16 207.18 C 410.72 204.99 414.46 203.12 418.16 201.18 C 421.71 198.99 425.47 197.14 429.15 195.17 C 431.86 193.55 434.70 192.15 437.25 190.27 C 441.67 185.51 439.94 178.80 440.29 172.97 C 440.15 171.51 440.61 169.84 439.69 168.58 C 436.53 163.88 433.22 159.16 431.18 153.85 C 428.96 149.60 427.50 145.01 426.21 140.40 C 423.96 138.30 421.87 135.92 421.04 132.89 C 419.70 128.73 420.45 124.30 420.27 120.02 C 420.45 115.75 419.70 111.33 421.03 107.19 C 421.71 105.10 422.82 103.20 424.25 101.54 C 424.82 91.42 422.56 80.64 427.10 71.14 C 430.01 63.69 436.08 57.70 443.17 54.14 C 445.74 52.90 448.32 51.60 451.15 51.09 M 453.82 57.88 C 452.81 58.23 451.79 58.57 450.79 58.91 C 445.38 60.99 440.33 64.17 436.75 68.80 C 435.89 70.54 434.94 72.23 433.80 73.80 C 430.15 83.64 432.29 94.26 431.73 104.48 C 430.72 105.60 429.71 106.70 428.67 107.77 C 426.82 113.67 428.13 119.97 427.71 126.05 C 427.26 129.88 428.95 133.93 432.54 135.63 C 433.73 139.10 434.62 142.67 435.82 146.15 C 439.00 153.37 442.56 160.53 447.70 166.58 C 447.12 175.67 449.90 186.04 443.92 193.89 C 442.31 196.02 440.21 197.69 437.82 198.87 C 434.23 200.98 430.53 202.89 426.84 204.82 C 423.27 207.00 419.53 208.87 415.83 210.82 C 412.27 213.01 408.52 214.87 404.82 216.83 C 397.32 220.41 391.48 226.87 388.84 234.77 C 386.93 241.90 388.08 249.30 387.65 256.56 C 389.82 258.65 392.18 260.81 395.22 261.48 C 395.31 261.68 395.49 262.06 395.58 262.26 C 412.42 268.05 430.26 270.21 447.96 271.40 C 460.31 271.87 472.69 272.95 485.04 271.86 C 506.41 271.12 528.07 269.20 548.41 262.24 C 548.51 262.05 548.69 261.67 548.79 261.48 C 551.82 260.80 554.18 258.64 556.36 256.56 C 555.95 248.62 557.28 240.41 554.17 232.84 C 551.49 226.95 546.92 222.07 541.36 218.80 C 528.34 212.40 515.41 205.83 502.42 199.38 C 499.40 197.96 497.00 195.54 495.07 192.87 C 493.56 190.16 492.31 187.20 492.31 184.05 C 492.20 178.22 492.27 172.40 492.30 166.58 C 497.13 161.05 500.93 154.71 504.16 148.14 C 505.31 145.15 506.64 142.23 507.58 139.16 C 508.10 137.91 508.42 136.04 510.17 136.16 C 512.13 135.19 513.95 133.94 515.37 132.25 C 516.78 128.29 516.16 124.05 516.26 119.95 C 516.15 115.89 516.79 111.67 515.32 107.78 C 514.28 106.71 513.27 105.61 512.28 104.52 C 512.24 97.68 512.27 90.85 512.32 84.02 C 512.31 78.51 510.02 73.43 507.24 68.80 C 503.66 64.16 498.60 60.96 493.18 58.89 C 492.17 58.57 491.18 58.25 490.18 57.94 C 488.81 57.63 487.45 57.34 486.14 56.85 C 475.40 55.24 464.41 55.26 453.82 57.88 Z" />
<path fill="#f58929" opacity="1.00" d=" M 383.83 63.82 C 393.35 60.36 403.81 59.33 413.85 60.63 C 412.51 62.84 411.53 65.24 410.91 67.76 C 404.86 67.46 398.84 67.94 392.87 68.88 C 391.58 69.39 390.20 69.63 388.86 69.90 C 381.63 72.51 374.34 77.51 372.39 85.36 L 371.73 85.50 C 371.61 88.09 371.02 90.64 370.77 93.22 C 370.94 99.34 371.65 105.55 370.56 111.63 C 369.56 112.63 368.59 113.67 367.64 114.71 C 367.33 121.28 367.37 127.87 367.62 134.45 C 369.09 136.15 371.15 137.45 372.17 139.49 C 374.38 149.33 379.17 158.46 385.33 166.39 C 384.80 173.92 386.76 182.08 383.06 189.06 C 380.26 194.71 374.00 196.95 368.83 199.82 C 365.27 202.02 361.52 203.87 357.85 205.86 C 354.91 207.66 351.84 209.22 348.80 210.83 C 342.26 214.18 335.36 218.81 333.48 226.37 L 332.77 226.44 C 331.29 233.12 331.84 239.95 331.69 246.74 C 334.18 249.37 337.58 250.66 340.78 252.18 C 342.84 252.70 344.87 253.34 346.85 254.14 C 352.57 255.14 358.19 256.68 363.96 257.37 C 364.30 258.97 364.59 260.57 364.88 262.19 C 365.20 263.19 365.52 264.19 365.83 265.20 C 355.14 263.88 344.35 261.90 334.43 257.57 C 329.92 255.54 324.87 252.38 324.11 247.05 C 323.85 238.17 323.33 228.74 327.51 220.59 C 330.24 214.99 334.62 210.21 340.02 207.10 C 351.17 200.81 362.53 194.90 373.62 188.52 C 379.76 184.04 377.31 175.50 377.62 169.05 C 372.77 161.61 368.15 153.85 365.84 145.19 C 365.36 142.41 362.80 140.83 361.54 138.46 C 358.95 134.07 360.13 128.80 359.88 123.97 C 360.10 119.77 359.07 115.17 361.29 111.34 C 361.93 110.14 362.66 108.98 363.26 107.75 C 363.99 100.20 362.32 92.46 364.40 85.03 C 366.80 75.24 374.45 67.28 383.83 63.82 Z" />
<path fill="#f58929" opacity="1.00" d=" M 530.18 60.60 C 538.43 59.39 546.87 60.31 554.96 62.14 C 564.66 64.49 573.85 70.70 577.85 80.11 C 582.09 88.76 580.21 98.55 580.61 107.79 C 582.48 110.53 584.30 113.57 584.11 117.01 C 584.08 122.66 584.27 128.33 584.00 133.97 C 583.47 138.87 579.69 142.34 575.90 144.99 C 572.84 152.75 569.30 160.44 564.11 167.07 C 562.09 169.20 563.11 172.30 562.88 174.92 C 563.15 178.76 562.05 183.14 564.47 186.49 C 565.53 188.17 567.25 189.23 568.98 190.12 C 580.06 195.68 591.14 201.24 602.21 206.83 C 609.37 210.41 615.07 216.79 617.82 224.31 C 620.42 231.26 620.07 238.79 619.97 246.08 C 619.87 251.28 615.28 254.81 611.00 256.90 C 600.77 261.81 589.42 263.69 578.27 265.24 C 579.05 262.65 579.55 260.00 580.07 257.36 C 585.83 256.68 591.46 255.15 597.18 254.17 C 599.10 253.27 601.17 252.75 603.22 252.18 C 606.43 250.83 609.42 249.10 612.34 247.23 C 612.00 240.73 612.94 234.12 611.19 227.75 C 610.19 225.76 609.25 223.74 608.24 221.76 C 605.79 218.59 602.85 215.82 599.38 213.81 C 587.72 208.04 576.11 202.16 564.49 196.31 C 558.83 193.53 555.05 187.34 555.27 181.02 C 555.33 176.02 555.11 171.01 555.37 166.03 C 559.13 161.41 562.35 156.39 565.13 151.11 C 566.05 148.77 567.07 146.46 568.13 144.18 C 568.42 143.17 568.72 142.17 569.02 141.17 C 569.78 137.47 574.73 137.70 576.40 134.44 C 576.61 127.87 576.67 121.28 576.36 114.71 C 575.40 113.67 574.43 112.63 573.44 111.63 C 571.81 103.07 574.38 94.30 572.17 85.80 C 569.46 78.43 563.32 72.26 555.58 70.42 L 555.52 69.76 C 554.00 69.67 552.52 69.49 551.14 68.87 C 545.15 67.95 539.12 67.46 533.06 67.75 C 532.46 65.23 531.46 62.85 530.18 60.60 Z" />
<path fill="#f58929" opacity="1.00" d=" M 117.08 374.92 C 116.93 368.59 122.63 362.91 128.96 363.08 C 153.01 363.06 177.05 363.06 201.10 363.08 C 207.43 362.92 213.09 368.62 212.97 374.94 C 213.05 389.59 212.97 404.24 213.00 418.89 C 218.61 419.16 223.91 423.24 224.80 428.92 C 226.30 435.95 220.17 443.20 213.01 442.97 C 198.34 443.05 183.67 442.97 169.00 443.00 C 169.00 459.00 169.00 475.00 169.00 491.00 C 207.67 491.00 246.33 491.00 285.00 491.00 C 285.00 507.00 285.00 523.00 285.00 539.00 C 290.19 539.21 295.49 538.46 300.62 539.56 C 305.44 541.03 309.04 545.81 308.97 550.89 C 309.07 558.57 308.93 566.26 309.03 573.95 C 311.62 576.64 313.42 580.28 312.94 584.11 C 312.52 590.08 307.03 595.14 301.03 594.98 C 287.66 595.01 274.28 595.02 260.91 594.98 C 256.07 595.04 251.46 591.76 249.78 587.25 C 247.92 582.65 249.50 577.34 252.97 573.96 C 253.07 566.29 252.93 558.61 253.02 550.94 C 252.89 544.98 257.93 539.46 263.88 539.09 C 268.25 538.85 272.63 539.06 277.00 539.00 C 277.00 525.67 277.00 512.33 277.00 499.00 C 253.00 499.00 229.00 499.00 205.00 499.00 C 205.00 512.33 205.00 525.67 205.00 539.00 C 210.21 539.21 215.53 538.46 220.66 539.57 C 225.49 541.06 229.07 545.87 228.98 550.95 C 229.07 558.62 228.93 566.28 229.03 573.95 C 231.60 576.62 233.40 580.24 232.95 584.04 C 232.56 590.02 227.08 595.12 221.06 594.98 C 207.72 595.02 194.36 595.01 181.01 594.98 C 176.13 595.08 171.48 591.80 169.78 587.26 C 167.91 582.66 169.50 577.34 172.97 573.96 C 173.07 566.29 172.93 558.63 173.02 550.96 C 172.88 544.98 177.94 539.44 183.91 539.09 C 188.27 538.85 192.64 539.06 197.00 539.00 C 197.00 525.67 197.00 512.33 197.00 499.00 C 173.00 499.00 149.00 499.00 125.00 499.00 C 125.00 512.33 125.00 525.67 125.00 539.00 C 130.18 539.21 135.47 538.48 140.58 539.54 C 145.45 541.01 149.07 545.84 148.98 550.95 C 149.07 558.61 148.93 566.28 149.03 573.94 C 151.62 576.65 153.43 580.29 152.94 584.13 C 152.51 590.10 147.00 595.16 140.99 594.98 C 127.64 595.01 114.30 595.02 100.95 594.98 C 96.07 595.06 91.43 591.75 89.76 587.20 C 87.93 582.61 89.51 577.32 92.97 573.96 C 93.07 566.30 92.93 558.63 93.03 550.97 C 92.88 545.01 97.90 539.48 103.84 539.10 C 108.22 538.85 112.61 539.06 117.00 539.00 C 117.00 525.67 117.00 512.33 117.00 499.00 C 93.00 499.00 69.00 499.00 45.00 499.00 C 45.00 512.33 45.00 525.67 45.00 539.00 C 50.20 539.21 55.50 538.46 60.63 539.56 C 65.46 541.04 69.05 545.83 68.97 550.91 C 69.07 558.59 68.93 566.27 69.03 573.95 C 71.64 576.64 73.42 580.32 72.94 584.16 C 72.49 590.08 67.06 595.11 61.09 594.98 C 47.69 595.02 34.29 595.02 20.90 594.97 C 16.55 595.03 12.39 592.39 10.38 588.58 C 7.73 583.80 9.10 577.65 12.97 573.96 C 13.07 566.27 12.93 558.59 13.03 550.91 C 12.91 544.93 17.99 539.41 23.96 539.09 C 28.30 538.85 32.65 539.06 37.00 539.00 C 37.00 523.00 37.00 507.00 37.00 491.00 C 78.33 491.00 119.67 491.00 161.00 491.00 C 161.00 475.00 161.00 459.00 161.00 443.00 C 146.32 442.97 131.64 443.05 116.96 442.97 C 109.78 443.17 103.71 435.87 105.25 428.85 C 106.15 423.18 111.47 419.17 117.05 418.88 C 117.09 404.23 117.02 389.57 117.08 374.92 M 125.00 371.00 C 125.00 387.00 125.00 403.00 125.00 419.00 C 151.67 419.00 178.33 419.00 205.00 419.00 C 205.00 403.00 205.00 387.00 205.00 371.00 C 178.33 371.00 151.67 371.00 125.00 371.00 M 113.00 427.00 C 113.00 429.66 113.00 432.33 113.00 435.00 C 147.67 435.00 182.33 435.00 217.00 435.00 C 217.00 432.33 217.00 429.66 217.00 427.00 C 182.33 427.00 147.67 427.00 113.00 427.00 M 21.00 547.00 C 21.00 555.00 21.00 563.00 21.00 571.00 C 34.33 571.00 47.67 571.00 61.00 571.00 C 61.00 563.00 61.00 555.00 61.00 547.00 C 47.67 547.00 34.33 547.00 21.00 547.00 M 101.00 547.00 C 101.00 555.00 101.00 563.00 101.00 571.00 C 114.33 571.00 127.67 571.00 141.00 571.00 C 141.00 563.00 141.00 555.00 141.00 547.00 C 127.67 547.00 114.33 547.00 101.00 547.00 M 181.00 547.00 C 181.00 555.00 181.00 563.00 181.00 571.00 C 194.33 571.00 207.67 571.00 221.00 571.00 C 221.00 563.00 221.00 555.00 221.00 547.00 C 207.67 547.00 194.33 547.00 181.00 547.00 M 261.00 547.00 C 261.00 555.00 261.00 563.00 261.00 571.00 C 274.33 571.00 287.67 571.00 301.00 571.00 C 301.00 563.00 301.00 555.00 301.00 547.00 C 287.67 547.00 274.33 547.00 261.00 547.00 M 17.00 579.00 C 17.00 581.66 17.00 584.33 17.00 587.00 C 33.00 587.00 49.00 587.00 65.00 587.00 C 65.00 584.33 65.00 581.66 65.00 579.00 C 49.00 579.00 33.00 579.00 17.00 579.00 M 97.00 579.00 C 97.00 581.66 97.00 584.33 97.00 587.00 C 113.00 587.00 129.00 587.00 145.00 587.00 C 145.00 584.33 145.00 581.66 145.00 579.00 C 129.00 579.00 113.00 579.00 97.00 579.00 M 177.00 579.00 C 177.00 581.66 177.00 584.33 177.00 587.00 C 193.00 587.00 209.00 587.00 225.00 587.00 C 225.00 584.33 225.00 581.66 225.00 579.00 C 209.00 579.00 193.00 579.00 177.00 579.00 M 257.00 579.00 C 257.00 581.66 257.00 584.33 257.00 587.00 C 273.00 587.00 289.00 587.00 305.00 587.00 C 305.00 584.33 305.00 581.66 305.00 579.00 C 289.00 579.00 273.00 579.00 257.00 579.00 Z" />
<path fill="#f58929" opacity="1.00" d=" M 467.51 363.84 C 502.22 359.50 538.41 372.20 562.98 397.06 C 576.54 410.64 586.74 427.58 592.18 446.00 C 598.99 468.75 598.56 493.61 590.89 516.10 C 580.72 546.45 557.36 572.06 528.06 584.96 C 495.24 599.82 455.44 598.00 424.17 580.05 C 394.30 563.39 372.56 532.92 366.78 499.19 C 362.70 476.31 365.69 452.22 375.40 431.10 C 387.88 403.55 411.52 381.27 439.84 370.61 C 448.73 367.21 458.05 364.95 467.51 363.84 M 406.18 401.22 C 415.33 407.01 425.13 411.73 435.35 415.30 C 443.13 399.09 453.89 384.34 466.91 371.95 C 444.22 374.88 422.64 385.35 406.18 401.22 M 495.10 371.95 C 508.11 384.35 518.87 399.09 526.65 415.30 C 536.87 411.73 546.68 407.00 555.83 401.22 C 539.36 385.36 517.79 374.88 495.10 371.95 M 443.11 417.72 C 454.14 420.81 465.55 422.49 476.99 422.88 C 477.01 406.45 477.00 390.02 476.99 373.59 C 462.90 385.84 451.34 400.96 443.11 417.72 M 485.00 373.58 C 485.00 390.01 484.99 406.44 485.01 422.87 C 496.45 422.51 507.84 420.78 518.87 417.75 C 510.71 400.94 499.09 385.86 485.00 373.58 M 373.08 474.99 C 389.09 475.00 405.09 475.00 421.09 475.00 C 421.62 457.06 425.29 439.23 432.08 422.61 C 420.98 418.73 410.40 413.45 400.52 407.09 C 383.84 425.63 373.96 450.07 373.08 474.99 M 529.91 422.62 C 536.70 439.23 540.40 457.06 540.91 475.00 C 556.91 475.00 572.91 475.00 588.91 475.00 C 588.04 450.07 578.16 425.63 561.48 407.10 C 551.62 413.50 540.99 418.70 529.91 422.62 M 439.76 425.11 C 433.23 440.92 429.60 457.90 429.09 475.00 C 445.06 475.00 461.03 475.00 477.00 475.00 C 477.00 460.29 477.00 445.58 477.00 430.86 C 464.41 430.50 451.87 428.57 439.76 425.11 M 485.00 430.87 C 485.00 445.58 485.00 460.29 485.00 475.00 C 500.97 475.00 516.94 475.00 532.91 475.00 C 532.40 457.91 528.78 440.93 522.25 425.12 C 510.13 428.56 497.60 430.50 485.00 430.87 M 373.09 483.01 C 373.93 506.81 382.97 530.18 398.32 548.39 C 408.41 541.59 419.34 536.04 430.77 531.85 C 424.83 516.26 421.60 499.68 421.10 483.00 C 405.10 483.00 389.09 482.99 373.09 483.01 M 429.10 483.01 C 429.60 498.81 432.68 514.53 438.34 529.31 C 450.89 525.58 463.91 523.53 477.00 523.14 C 477.00 509.76 477.00 496.38 477.00 483.00 C 461.03 483.00 445.07 482.99 429.10 483.01 M 485.00 483.00 C 485.00 496.38 485.00 509.76 485.00 523.14 C 498.09 523.52 511.11 525.59 523.66 529.31 C 529.33 514.54 532.40 498.81 532.90 483.01 C 516.93 482.99 500.97 483.00 485.00 483.00 M 540.89 483.00 C 540.39 499.67 537.19 516.27 531.24 531.85 C 542.66 536.04 553.58 541.60 563.68 548.39 C 579.03 530.18 588.08 506.81 588.92 483.00 C 572.91 483.00 556.90 483.00 540.89 483.00 M 441.45 536.76 C 449.69 554.96 461.99 571.25 476.99 584.42 C 477.00 566.66 477.01 548.90 476.99 531.14 C 464.97 531.52 452.99 533.37 441.45 536.76 M 485.01 531.14 C 484.99 548.90 485.00 566.66 485.00 584.42 C 500.01 571.24 512.32 554.97 520.54 536.75 C 509.00 533.37 497.03 531.52 485.01 531.14 M 403.78 554.33 C 420.44 571.62 443.10 582.97 466.91 586.04 C 453.01 572.76 441.67 556.81 433.82 539.25 C 423.25 543.05 413.21 548.24 403.78 554.33 M 495.09 586.05 C 518.92 582.99 541.50 571.58 558.24 554.37 C 548.84 548.22 538.76 543.10 528.21 539.24 C 520.32 556.79 509.00 572.76 495.09 586.05 Z" />
</g>
</svg>
