<?xml version="1.0" encoding="UTF-8" ?>
<!DOCTYPE svg PUBLIC "-//W3C//DTD SVG 1.1//EN" "http://www.w3.org/Graphics/SVG/1.1/DTD/svg11.dtd">
<svg width="720pt" height="240pt" viewBox="0 0 720 240" version="1.1" xmlns="http://www.w3.org/2000/svg">
<g id="#fec402fe">
<path fill="#fec402" opacity="1.00" d=" M 63.29 38.17 C 82.11 35.78 101.08 33.93 119.98 32.04 C 138.89 33.86 157.85 35.79 176.68 38.13 C 191.47 57.14 205.63 76.65 219.85 96.08 C 206.31 96.84 192.73 95.85 179.19 96.60 C 139.75 96.97 100.27 96.96 60.84 96.60 C 47.28 95.88 33.67 96.78 20.11 96.13 C 34.35 76.70 48.50 57.18 63.29 38.17 M 60.61 96.33 C 100.21 96.47 139.81 96.46 179.41 96.34 C 159.52 75.02 139.83 53.50 120.00 32.13 C 100.19 53.52 80.49 75.01 60.61 96.33 Z" />
</g>
<g id="#fff0b3ff">
<path fill="#fff0b3" opacity="1.00" d=" M 60.61 96.33 C 80.49 75.01 100.19 53.52 120.00 32.13 C 139.83 53.50 159.52 75.02 179.41 96.34 C 139.81 96.46 100.21 96.47 60.61 96.33 Z" />
</g>
<g id="#5fd5f5f9">
<path fill="#5fd5f5" opacity="0.98" d=" M 309.72 38.69 C 328.32 30.75 346.62 46.14 359.98 57.68 C 373.15 46.10 391.15 30.91 409.69 38.32 C 425.58 50.34 421.17 73.71 417.90 90.74 C 434.39 96.57 457.09 104.07 459.85 124.00 C 457.00 143.73 434.58 151.39 418.14 157.08 C 421.45 174.04 425.85 197.12 410.27 209.31 C 391.68 217.03 373.51 201.69 360.13 190.23 C 346.93 201.80 328.96 216.94 310.39 209.63 C 294.44 197.60 298.87 174.16 302.15 157.10 C 285.63 151.43 263.06 143.82 260.19 124.00 C 262.95 104.14 285.55 96.62 301.99 90.78 C 298.64 73.87 294.32 50.94 309.72 38.69 M 315.06 46.01 C 303.73 56.61 308.52 74.86 310.77 88.46 C 319.24 86.29 327.91 84.97 336.59 83.99 C 341.81 77.00 347.37 70.26 353.42 63.97 C 342.83 55.01 329.94 43.16 315.06 46.01 M 366.31 63.93 C 372.63 70.05 378.02 77.04 383.41 83.98 C 392.08 84.96 400.72 86.30 409.20 88.41 C 411.29 74.75 416.44 55.69 404.23 45.66 C 389.36 43.43 376.97 55.11 366.31 63.93 M 348.69 83.18 C 356.20 82.70 363.75 82.74 371.27 83.20 C 367.74 78.63 363.80 74.40 359.94 70.12 C 356.03 74.33 352.15 78.59 348.69 83.18 M 341.32 92.85 C 334.68 102.85 328.57 113.20 323.33 124.01 C 328.80 134.87 334.48 145.94 342.11 155.38 C 354.26 156.35 366.56 156.58 378.69 155.17 C 385.36 145.15 391.49 134.77 396.72 123.92 C 391.54 113.10 385.29 102.84 378.68 92.85 C 366.31 91.44 353.70 91.48 341.32 92.85 M 312.95 97.20 C 314.65 102.55 316.49 107.86 318.57 113.09 C 322.21 106.57 325.78 100.00 329.91 93.78 C 324.25 94.89 318.52 95.69 312.95 97.20 M 390.04 93.77 C 394.28 99.88 397.62 106.57 401.56 112.84 C 403.41 107.64 405.30 102.45 406.92 97.17 C 401.37 95.67 395.67 94.89 390.04 93.77 M 269.19 124.01 C 273.75 138.72 291.33 143.48 304.31 148.49 C 306.79 140.14 309.78 131.92 313.43 124.01 C 309.72 116.10 306.71 107.87 304.22 99.50 C 291.24 104.44 273.59 109.25 269.19 124.01 M 406.57 123.98 C 410.32 131.85 413.27 140.10 415.80 148.44 C 428.76 143.46 446.27 138.69 450.85 124.01 C 446.41 109.20 428.68 104.43 415.67 99.44 C 413.22 107.82 410.15 116.02 406.57 123.98 M 390.17 154.13 C 395.80 153.03 401.48 152.18 407.03 150.74 C 405.36 145.43 403.61 140.14 401.47 135.01 C 397.66 141.26 394.24 147.95 390.17 154.13 M 318.44 135.11 C 316.58 140.30 314.71 145.48 313.06 150.75 C 318.58 152.23 324.24 153.01 329.84 154.12 C 325.81 147.93 322.33 141.36 318.44 135.11 M 310.84 159.51 C 308.65 173.14 303.99 191.15 315.04 201.93 C 330.07 205.27 342.88 192.79 353.74 184.05 C 347.51 177.84 341.96 170.98 336.70 163.93 C 328.00 162.97 319.34 161.61 310.84 159.51 M 383.31 163.93 C 378.20 171.02 372.57 177.74 366.48 184.01 C 377.35 192.69 389.99 204.76 404.95 201.93 C 416.33 191.34 411.52 173.06 409.29 159.44 C 400.76 161.59 392.04 162.91 383.31 163.93 M 348.72 164.76 C 352.30 169.28 356.20 173.52 360.08 177.79 C 363.97 173.58 367.83 169.33 371.31 164.77 C 363.79 165.24 356.24 165.16 348.72 164.76 Z" />
</g>
<g id="#a4371bb8">
<path fill="#a4371b" opacity="0.72" d=" M 528.98 43.43 C 576.29 42.95 623.70 42.96 671.02 43.42 C 623.68 43.77 576.31 43.76 528.98 43.43 Z" />
</g>
<g id="#e34e26fe">
<path fill="#e34e26" opacity="1.00" d=" M 528.98 43.43 C 576.31 43.76 623.68 43.77 671.02 43.42 C 666.43 91.58 662.35 139.79 658.01 187.98 C 638.61 193.22 619.30 198.86 599.87 203.96 C 580.54 198.82 561.29 193.26 541.98 187.99 C 537.64 139.81 533.57 91.59 528.98 43.43 M 600.16 55.21 C 599.71 60.44 599.77 65.69 600.11 70.92 C 614.74 71.69 629.46 70.45 644.07 71.53 C 614.50 71.73 584.95 72.77 555.35 72.39 C 555.34 74.68 555.17 77.04 556.02 79.23 C 557.56 95.01 558.77 110.82 560.34 126.59 C 580.77 126.35 601.21 126.74 621.64 126.57 C 620.99 134.20 620.27 141.82 619.61 149.45 C 606.61 154.75 592.62 155.58 580.19 148.99 C 579.51 144.48 579.49 139.90 578.95 135.37 C 573.00 135.38 567.05 135.42 561.11 135.34 C 561.81 144.66 562.78 153.96 563.55 163.27 C 575.48 166.61 587.46 169.79 599.34 173.30 C 599.61 173.57 600.16 174.12 600.43 174.39 C 599.60 179.95 599.82 185.58 600.06 191.18 C 614.94 188.65 629.28 183.32 643.96 179.73 C 647.57 179.53 647.32 175.63 647.62 172.93 C 650.84 133.68 654.90 94.48 657.84 55.21 C 638.62 55.04 619.38 55.05 600.16 55.21 Z" />
</g>
<g id="#ef632aff">
<path fill="#ef632a" opacity="1.00" d=" M 600.16 55.21 C 619.38 55.05 638.62 55.04 657.84 55.21 C 654.90 94.48 650.84 133.68 647.62 172.93 C 647.32 175.63 647.57 179.53 643.96 179.73 C 629.28 183.32 614.94 188.65 600.06 191.18 C 599.82 185.58 599.60 179.95 600.43 174.39 C 600.16 174.12 599.61 173.57 599.34 173.30 C 611.74 170.34 624.06 166.81 636.26 163.14 C 638.23 145.03 639.51 126.82 641.29 108.68 C 619.68 108.54 598.07 108.80 576.47 108.71 C 575.99 102.66 575.43 96.61 574.90 90.56 C 597.54 90.58 620.18 90.69 642.83 90.69 C 643.44 84.73 643.93 78.76 644.46 72.79 C 614.81 72.76 585.16 72.89 555.51 72.84 C 555.67 74.97 555.82 77.10 556.02 79.23 C 555.17 77.04 555.34 74.68 555.35 72.39 C 584.95 72.77 614.50 71.73 644.07 71.53 C 629.46 70.45 614.74 71.69 600.11 70.92 C 599.77 65.69 599.71 60.44 600.16 55.21 Z" />
</g>
<g id="#f5f3f2ff">
<path fill="#f5f3f2" opacity="1.00" d=" M 555.51 72.84 C 585.16 72.89 614.81 72.76 644.46 72.79 C 643.93 78.76 643.44 84.73 642.83 90.69 C 620.18 90.69 597.54 90.58 574.90 90.56 C 575.43 96.61 575.99 102.66 576.47 108.71 C 598.07 108.80 619.68 108.54 641.29 108.68 C 639.51 126.82 638.23 145.03 636.26 163.14 C 624.06 166.81 611.74 170.34 599.34 173.30 C 587.46 169.79 575.48 166.61 563.55 163.27 C 562.78 153.96 561.81 144.66 561.11 135.34 C 567.05 135.42 573.00 135.38 578.95 135.37 C 579.49 139.90 579.51 144.48 580.19 148.99 C 592.62 155.58 606.61 154.75 619.61 149.45 C 620.27 141.82 620.99 134.20 621.64 126.57 C 601.21 126.74 580.77 126.35 560.34 126.59 C 558.77 110.82 557.56 95.01 556.02 79.23 C 555.82 77.10 555.67 74.97 555.51 72.84 Z" />
</g>
<g id="#050b0d0d">
<path fill="#050b0d" opacity="0.05" d=" M 312.95 97.20 C 318.52 95.69 324.25 94.89 329.91 93.78 C 325.78 100.00 322.21 106.57 318.57 113.09 C 316.49 107.86 314.65 102.55 312.95 97.20 Z" />
</g>
<g id="#050b0c0d">
<path fill="#050b0c" opacity="0.05" d=" M 390.04 93.77 C 395.67 94.89 401.37 95.67 406.92 97.17 C 405.30 102.45 403.41 107.64 401.56 112.84 C 397.62 106.57 394.28 99.88 390.04 93.77 Z" />
</g>
<g id="#fd6c00fd">
<path fill="#fd6c00" opacity="1.00" d=" M 19.68 96.11 L 20.11 96.13 C 33.67 96.78 47.28 95.88 60.84 96.60 C 79.41 134.62 100.15 171.64 118.31 209.85 C 85.15 172.20 52.54 134.03 19.68 96.11 Z" />
<path fill="#fd6c00" opacity="1.00" d=" M 179.19 96.60 C 192.73 95.85 206.31 96.84 219.85 96.08 L 220.34 96.06 C 187.51 134.03 154.86 172.17 121.70 209.84 C 139.87 171.64 160.56 134.60 179.19 96.60 Z" />
</g>
<g id="#ffaf00ff">
<path fill="#ffaf00" opacity="1.00" d=" M 60.84 96.60 C 100.27 96.96 139.75 96.97 179.19 96.60 C 160.56 134.60 139.87 171.64 121.70 209.84 C 121.27 210.76 120.57 211.52 120.00 212.35 C 119.43 211.52 118.74 210.76 118.31 209.85 C 100.15 171.64 79.41 134.62 60.84 96.60 Z" />
</g>
<g id="#60d7f8fc">
<path fill="#60d7f8" opacity="1.00" d=" M 354.32 106.45 C 366.01 102.16 379.69 112.53 378.56 124.96 C 378.40 139.67 358.74 147.94 347.98 138.01 C 336.76 129.56 340.82 109.98 354.32 106.45 Z" />
</g>
<g id="#040a0b0c">
<path fill="#040a0b" opacity="0.05" d=" M 390.17 154.13 C 394.24 147.95 397.66 141.26 401.47 135.01 C 403.61 140.14 405.36 145.43 407.03 150.74 C 401.48 152.18 395.80 153.03 390.17 154.13 Z" />
</g>
<g id="#050b0c0c">
<path fill="#050b0c" opacity="0.05" d=" M 318.44 135.11 C 322.33 141.36 325.81 147.93 329.84 154.12 C 324.24 153.01 318.58 152.23 313.06 150.75 C 314.71 145.48 316.58 140.30 318.44 135.11 Z" />
</g>
</svg>
